<svg width="32" height="32" viewBox="0 0 32 32" fill="none" xmlns="http://www.w3.org/2000/svg">
<g clip-path="url(#clip0_1124_781)">
<path d="M16 32C24.8368 32 32 24.8368 32 16C32 7.1632 24.8368 0 16 0C7.1632 0 0 7.1632 0 16C0 24.8368 7.1632 32 16 32Z" fill="#3FC38B"/>
<path fill-rule="evenodd" clip-rule="evenodd" d="M9.24288 21.3637C8.76448 21.0709 8.47168 20.5509 8.47168 19.9909V16.8645C8.47168 16.4933 8.77408 16.1925 9.14528 16.1941C9.26368 16.1941 9.38048 16.2261 9.48288 16.2853L16.5373 20.3989C16.9501 20.6389 17.2045 21.0805 17.2045 21.5589V24.7973C17.2061 25.2421 16.8461 25.6037 16.4013 25.6037C16.2525 25.6037 16.1053 25.5621 15.9789 25.4853L9.24288 21.3637ZM19.7581 15.4293C20.1709 15.6693 20.4237 16.1125 20.4253 16.5893V23.1621C20.4253 23.3557 20.3213 23.5349 20.1517 23.6293L18.6077 24.4981C18.5885 24.5093 18.5677 24.5173 18.5453 24.5237V20.8741C18.5453 20.4021 18.2973 19.9637 17.8909 19.7205L11.6957 16.0149V11.8949C11.6957 11.5237 11.9981 11.2229 12.3693 11.2245C12.4877 11.2245 12.6045 11.2565 12.7069 11.3157L19.7581 15.4293ZM22.8461 10.5749C23.2605 10.8149 23.5149 11.2581 23.5149 11.7365V21.3365C23.5133 21.5333 23.4045 21.7141 23.2317 21.8085L21.7677 22.5989V15.9157C21.7677 15.4437 21.5197 15.0069 21.1165 14.7637L14.7837 10.9653V7.05807C14.7837 6.93967 14.8157 6.82287 14.8733 6.72047C15.0605 6.40047 15.4717 6.29167 15.7917 6.47727L22.8461 10.5749Z" fill="white"/>
</g>
<defs>
<clipPath id="clip0_1124_781">
<rect width="32" height="32" fill="white"/>
</clipPath>
</defs>
</svg>
