<svg width="32" height="32" viewBox="0 0 32 32" fill="none" xmlns="http://www.w3.org/2000/svg">
<g clip-path="url(#clip0_2872_610)">
<mask id="mask0_2872_610" style="mask-type:luminance" maskUnits="userSpaceOnUse" x="0" y="0" width="32" height="32">
<path d="M32 0H0V32H32V0Z" fill="white"/>
</mask>
<g mask="url(#mask0_2872_610)">
<path d="M16 32C24.8365 32 32 24.8365 32 16C32 7.16345 24.8365 0 16 0C7.16345 0 0 7.16345 0 16C0 24.8365 7.16345 32 16 32Z" fill="#BC2DA7"/>
<path fill-rule="evenodd" clip-rule="evenodd" d="M27.2995 12.8738C23.6374 9.39169 19.8724 7.56372 16.0246 7.56372C12.1768 7.56372 8.41184 9.39169 4.74966 12.8738C4.43629 13.1717 4.424 13.6671 4.72221 13.9802C5.02041 14.2933 5.51618 14.3056 5.82954 14.0076C9.3112 10.6972 12.7093 9.1289 16.0246 9.1289C19.337 9.1289 22.7322 10.6945 26.2107 13.9992C26.2653 14.0556 26.3098 14.1332 26.3357 14.2141C26.3265 14.2619 26.3217 14.3112 26.3217 14.3617C26.3217 14.5466 26.2608 14.646 26.2112 14.6885C26.2006 14.6977 26.1901 14.7071 26.1799 14.7169C26.0947 14.7982 26.0094 14.8785 25.9243 14.9578C22.6822 12.2621 19.3751 10.8543 16.0052 10.8543C12.4546 10.8543 8.97388 12.417 5.56534 15.4021C5.55901 15.4072 5.55273 15.4124 5.54652 15.4177L5.53807 15.425C5.27714 15.6484 4.99264 15.8922 4.70585 16.1777C3.92153 16.9134 3.85999 18.1387 4.55142 18.979C4.556 18.9864 4.56071 18.9937 4.56559 19.0011C4.63287 19.1019 4.71319 19.1742 4.78899 19.2251C8.42623 22.6584 12.1646 24.46 15.9847 24.46C19.8324 24.46 23.5974 22.6321 27.2596 19.15C27.5729 18.852 27.5853 18.3567 27.287 18.0436C26.9888 17.7306 26.4931 17.7182 26.1796 18.0162C22.698 21.3266 19.2999 22.8949 15.9847 22.8949C12.6694 22.8949 9.27129 21.3266 5.78963 18.0162L5.78402 18.0108C5.57184 17.7813 5.61033 17.4735 5.78095 17.3162C5.78861 17.309 5.79615 17.3018 5.80352 17.2945C5.88949 17.2085 5.97573 17.1266 6.0632 17.0465C9.45142 19.8677 12.9106 21.2866 16.431 21.164C19.8051 21.0465 23.1079 19.517 26.338 16.6933C26.4126 16.6513 26.4814 16.5962 26.5412 16.5282C26.5559 16.5115 26.5697 16.4943 26.5828 16.4769C26.8051 16.2778 27.027 16.0725 27.2487 15.8612C27.6317 15.5244 27.8131 15.0796 27.8688 14.6578C27.9063 14.5665 27.9268 14.4665 27.9268 14.3617C27.9268 13.7992 27.6838 13.2574 27.3134 12.8873C27.3088 12.8827 27.3041 12.8782 27.2995 12.8738ZM16.0052 12.4195C18.8478 12.4195 21.7507 13.5766 24.731 16.0034C21.8858 18.3402 19.1032 19.5048 16.3764 19.5998C13.4132 19.7031 10.3831 18.5479 7.26924 16.0116C10.2532 13.5792 13.1594 12.4195 16.0052 12.4195Z" fill="white"/>
<path fill-rule="evenodd" clip-rule="evenodd" d="M15.9999 13.0908C14.3933 13.0908 13.0908 14.3933 13.0908 15.9999C13.0908 17.6066 14.3933 18.909 15.9999 18.909C17.6066 18.909 18.909 17.6066 18.909 15.9999C18.909 14.3933 17.6066 13.0908 15.9999 13.0908ZM15.9999 17.4545C16.8033 17.4545 17.4545 16.8033 17.4545 15.9999C17.4545 15.1966 16.8033 14.5454 15.9999 14.5454C15.1966 14.5454 14.5454 15.1966 14.5454 15.9999C14.5454 16.8033 15.1966 17.4545 15.9999 17.4545Z" fill="white"/>
</g>
</g>
<defs>
<clipPath id="clip0_2872_610">
<rect width="32" height="32" fill="white"/>
</clipPath>
</defs>
</svg>
