<svg width="48" height="48" viewBox="0 0 48 48" fill="none" xmlns="http://www.w3.org/2000/svg">
<g clip-path="url(#clip0_2872_610)" filter="url(#filter0_d_2872_610)">
<mask id="mask0_2872_610" style="mask-type:luminance" maskUnits="userSpaceOnUse" x="8" y="4" width="32" height="32">
<path d="M40 4H8V36H40V4Z" fill="white"/>
</mask>
<g mask="url(#mask0_2872_610)">
<path d="M24 36C32.8365 36 40 28.8365 40 20C40 11.1634 32.8365 4 24 4C15.1634 4 8 11.1634 8 20C8 28.8365 15.1634 36 24 36Z" fill="#BC2DA7"/>
<path fill-rule="evenodd" clip-rule="evenodd" d="M35.2995 16.8738C31.6374 13.3917 27.8724 11.5637 24.0246 11.5637C20.1768 11.5637 16.4118 13.3917 12.7497 16.8738C12.4363 17.1717 12.424 17.6671 12.7222 17.9802C13.0204 18.2933 13.5162 18.3056 13.8295 18.0076C17.3112 14.6972 20.7093 13.1289 24.0246 13.1289C27.337 13.1289 30.7322 14.6945 34.2107 17.9992C34.2653 18.0556 34.3098 18.1332 34.3357 18.2141C34.3265 18.2619 34.3217 18.3112 34.3217 18.3617C34.3217 18.5466 34.2608 18.646 34.2112 18.6885C34.2006 18.6977 34.1901 18.7071 34.1799 18.7169C34.0947 18.7982 34.0094 18.8785 33.9243 18.9578C30.6822 16.2621 27.3751 14.8543 24.0052 14.8543C20.4546 14.8543 16.9739 16.417 13.5653 19.4021C13.559 19.4072 13.5527 19.4124 13.5465 19.4177L13.5381 19.425C13.2771 19.6484 12.9926 19.8922 12.7058 20.1777C11.9215 20.9134 11.86 22.1387 12.5514 22.979C12.556 22.9864 12.5607 22.9937 12.5656 23.0011C12.6329 23.1019 12.7132 23.1742 12.789 23.2251C16.4262 26.6584 20.1646 28.46 23.9847 28.46C27.8324 28.46 31.5974 26.6321 35.2596 23.15C35.5729 22.852 35.5853 22.3567 35.287 22.0436C34.9888 21.7306 34.4931 21.7182 34.1796 22.0162C30.698 25.3266 27.2999 26.8949 23.9847 26.8949C20.6694 26.8949 17.2713 25.3266 13.7896 22.0162L13.784 22.0108C13.5718 21.7813 13.6103 21.4735 13.7809 21.3162C13.7886 21.309 13.7961 21.3018 13.8035 21.2945C13.8895 21.2085 13.9757 21.1266 14.0632 21.0465C17.4514 23.8677 20.9106 25.2866 24.431 25.164C27.8051 25.0465 31.1079 23.517 34.338 20.6933C34.4126 20.6513 34.4814 20.5962 34.5412 20.5282C34.5559 20.5115 34.5697 20.4943 34.5828 20.4769C34.8051 20.2778 35.027 20.0725 35.2487 19.8612C35.6317 19.5244 35.8131 19.0796 35.8688 18.6578C35.9063 18.5665 35.9268 18.4665 35.9268 18.3617C35.9268 17.7992 35.6838 17.2574 35.3134 16.8873C35.3088 16.8827 35.3041 16.8782 35.2995 16.8738ZM24.0052 16.4195C26.8478 16.4195 29.7507 17.5766 32.731 20.0034C29.8858 22.3402 27.1032 23.5048 24.3764 23.5998C21.4132 23.7031 18.3831 22.5479 15.2692 20.0116C18.2532 17.5792 21.1594 16.4195 24.0052 16.4195Z" fill="white"/>
<path fill-rule="evenodd" clip-rule="evenodd" d="M23.9999 17.0908C22.3933 17.0908 21.0908 18.3933 21.0908 19.9999C21.0908 21.6066 22.3933 22.909 23.9999 22.909C25.6066 22.909 26.909 21.6066 26.909 19.9999C26.909 18.3933 25.6066 17.0908 23.9999 17.0908ZM23.9999 21.4545C24.8033 21.4545 25.4545 20.8033 25.4545 19.9999C25.4545 19.1966 24.8033 18.5454 23.9999 18.5454C23.1966 18.5454 22.5454 19.1966 22.5454 19.9999C22.5454 20.8033 23.1966 21.4545 23.9999 21.4545Z" fill="white"/>
</g>
</g>
<defs>
<filter id="filter0_d_2872_610" x="0" y="0" width="48" height="48" filterUnits="userSpaceOnUse" color-interpolation-filters="sRGB">
<feFlood flood-opacity="0" result="BackgroundImageFix"/>
<feColorMatrix in="SourceAlpha" type="matrix" values="0 0 0 0 0 0 0 0 0 0 0 0 0 0 0 0 0 0 127 0" result="hardAlpha"/>
<feOffset dy="4"/>
<feGaussianBlur stdDeviation="4"/>
<feComposite in2="hardAlpha" operator="out"/>
<feColorMatrix type="matrix" values="0 0 0 0 0.902523 0 0 0 0 0.328633 0 0 0 0 0.818245 0 0 0 0.15 0"/>
<feBlend mode="normal" in2="BackgroundImageFix" result="effect1_dropShadow_2872_610"/>
<feBlend mode="normal" in="SourceGraphic" in2="effect1_dropShadow_2872_610" result="shape"/>
</filter>
<clipPath id="clip0_2872_610">
<rect width="32" height="32" fill="white" transform="translate(8 4)"/>
</clipPath>
</defs>
</svg>
