<svg width="24" height="24" viewBox="0 0 24 24" fill="none" xmlns="http://www.w3.org/2000/svg">
<path d="M8.30846 12.6982C8.54761 12.5601 8.62954 12.2544 8.49147 12.0152C8.3534 11.7761 8.04761 11.6941 7.80846 11.8322L8.30846 12.6982ZM7.80846 11.8322L5.61603 13.098L6.11603 13.964L8.30846 12.6982L7.80846 11.8322ZM5.06699 15.147L6.33279 17.3395L7.19881 16.8395L5.93301 14.647L5.06699 15.147ZM8.62389 17.9534L13.7213 15.0104L13.2213 14.1443L8.12389 17.0873L8.62389 17.9534ZM14.3352 12.7193L12.5694 9.6608L11.7034 10.1608L13.4692 13.2193L14.3352 12.7193ZM13.7213 15.0104C14.5235 14.5472 14.7984 13.5215 14.3352 12.7193L13.4692 13.2193C13.6562 13.5432 13.5452 13.9573 13.2213 14.1443L13.7213 15.0104ZM6.33279 17.3395C6.79594 18.1417 7.8217 18.4165 8.62389 17.9534L8.12389 17.0873C7.79999 17.2743 7.38582 17.1634 7.19881 16.8395L6.33279 17.3395ZM5.61603 13.098C4.89859 13.5122 4.65277 14.4296 5.06699 15.147L5.93301 14.647C5.79494 14.4079 5.87688 14.1021 6.11603 13.964L5.61603 13.098Z" fill="#959595"/>
<path d="M15.6914 10.9659C15.4522 11.104 15.3703 11.4098 15.5083 11.6489C15.6464 11.888 15.9522 11.97 16.1914 11.8319L15.6914 10.9659ZM17.234 6.57464L17.667 6.32464L17.234 6.57464ZM15.6259 6.14375L15.8759 6.57676L15.6259 6.14375ZM10.5285 9.08675L10.7785 9.51977L10.5285 9.08675ZM10.0976 10.6948L9.66459 10.9448L10.0976 10.6948ZM18.4998 8.76707L18.0668 9.01707L18.4998 8.76707ZM16.1914 11.8319L18.3838 10.5661L17.8838 9.70008L15.6914 10.9659L16.1914 11.8319ZM18.9328 8.51707L17.667 6.32464L16.801 6.82464L18.0668 9.01707L18.9328 8.51707ZM15.3759 5.71074L10.2785 8.65374L10.7785 9.51977L15.8759 6.57676L15.3759 5.71074ZM9.66459 10.9448L11.4304 14.0033L12.2964 13.5033L10.5306 10.4448L9.66459 10.9448ZM10.2785 8.65374C9.4763 9.11689 9.20144 10.1426 9.66459 10.9448L10.5306 10.4448C10.3436 10.1209 10.4546 9.70677 10.7785 9.51977L10.2785 8.65374ZM17.667 6.32464C17.2039 5.52244 16.1781 5.24759 15.3759 5.71074L15.8759 6.57676C16.1998 6.38976 16.614 6.50073 16.801 6.82464L17.667 6.32464ZM18.3838 10.5661C19.1012 10.1519 19.347 9.23451 18.9328 8.51707L18.0668 9.01707C18.2049 9.25621 18.1229 9.56201 17.8838 9.70008L18.3838 10.5661Z" fill="#959595"/>
</svg>
