<svg width="40" height="24" viewBox="0 0 40 24" fill="none" xmlns="http://www.w3.org/2000/svg">
<g filter="url(#filter0_b_5_2240)">
<path d="M39.792 11.2032C39.792 10.674 39.5823 10.1664 39.2087 9.79153L30.7559 1.30828C30.0198 0.569499 28.8396 0.520392 28.0446 1.19547L17.9382 9.77784C17.4907 10.1578 17.2328 10.7153 17.2328 11.3023L17.2328 21.4221C17.2328 22.5267 18.1282 23.4221 19.2328 23.4221L37.792 23.4221C38.8966 23.4221 39.792 22.5267 39.792 21.4221V11.2032Z" fill="url(#paint0_linear_5_2240)" fill-opacity="0.7"/>
</g>
<g filter="url(#filter1_b_5_2240)">
<path d="M22.5596 11.2032C22.5596 10.674 22.3498 10.1664 21.9763 9.79153L13.5235 1.30828C12.7874 0.569499 11.6071 0.520392 10.8122 1.19547L0.705776 9.77784C0.258293 10.1578 0.000364304 10.7153 0.000364304 11.3023L0.000364304 21.4221C0.000364304 22.5267 0.895794 23.4221 2.00036 23.4221L20.5596 23.4221C21.6641 23.4221 22.5596 22.5267 22.5596 21.4221L22.5596 11.2032Z" fill="url(#paint1_linear_5_2240)" fill-opacity="0.7"/>
</g>
<g filter="url(#filter2_b_5_2240)">
<path d="M31.958 11.4455C31.958 10.9247 31.7549 10.4245 31.3918 10.0512L22.9376 1.3573C22.1975 0.596246 20.9917 0.545996 20.1909 1.24284L10.086 10.0355C9.64942 10.4153 9.3988 10.9656 9.3988 11.5442L9.3988 22.0001C9.3988 23.1047 10.2942 24.0001 11.3988 24.0001L29.958 24.0001C31.0626 24.0001 31.958 23.1047 31.958 22.0001L31.958 11.4455Z" fill="url(#paint2_linear_5_2240)" fill-opacity="0.7"/>
</g>
<defs>
<filter id="filter0_b_5_2240" x="5.23279" y="-11.28" width="46.5592" height="46.7021" filterUnits="userSpaceOnUse" color-interpolation-filters="sRGB">
<feFlood flood-opacity="0" result="BackgroundImageFix"/>
<feGaussianBlur in="BackgroundImageFix" stdDeviation="6"/>
<feComposite in2="SourceAlpha" operator="in" result="effect1_backgroundBlur_5_2240"/>
<feBlend mode="normal" in="SourceGraphic" in2="effect1_backgroundBlur_5_2240" result="shape"/>
</filter>
<filter id="filter1_b_5_2240" x="-11.9996" y="-11.28" width="46.5592" height="46.7021" filterUnits="userSpaceOnUse" color-interpolation-filters="sRGB">
<feFlood flood-opacity="0" result="BackgroundImageFix"/>
<feGaussianBlur in="BackgroundImageFix" stdDeviation="6"/>
<feComposite in2="SourceAlpha" operator="in" result="effect1_backgroundBlur_5_2240"/>
<feBlend mode="normal" in="SourceGraphic" in2="effect1_backgroundBlur_5_2240" result="shape"/>
</filter>
<filter id="filter2_b_5_2240" x="-2.6012" y="-11.2483" width="46.5592" height="47.2485" filterUnits="userSpaceOnUse" color-interpolation-filters="sRGB">
<feFlood flood-opacity="0" result="BackgroundImageFix"/>
<feGaussianBlur in="BackgroundImageFix" stdDeviation="6"/>
<feComposite in2="SourceAlpha" operator="in" result="effect1_backgroundBlur_5_2240"/>
<feBlend mode="normal" in="SourceGraphic" in2="effect1_backgroundBlur_5_2240" result="shape"/>
</filter>
<linearGradient id="paint0_linear_5_2240" x1="28.5124" y1="10.3769" x2="28.5124" y2="23.4221" gradientUnits="userSpaceOnUse">
<stop stop-color="#C38BFF"/>
<stop offset="0.463542" stop-color="#AA5BFF"/>
<stop offset="1" stop-color="#9029FF" stop-opacity="0.7"/>
</linearGradient>
<linearGradient id="paint1_linear_5_2240" x1="11.28" y1="10.3769" x2="11.28" y2="23.4221" gradientUnits="userSpaceOnUse">
<stop stop-color="#C38BFF"/>
<stop offset="0.463542" stop-color="#AA5BFF"/>
<stop offset="1" stop-color="#9029FF" stop-opacity="0.7"/>
</linearGradient>
<linearGradient id="paint2_linear_5_2240" x1="20.6784" y1="10.6334" x2="20.6784" y2="24.0001" gradientUnits="userSpaceOnUse">
<stop stop-color="#C38BFF"/>
<stop offset="0.463542" stop-color="#AA5BFF"/>
<stop offset="1" stop-color="#9029FF" stop-opacity="0.7"/>
</linearGradient>
</defs>
</svg>
