<svg width="29" height="29" viewBox="0 0 29 29" fill="none" xmlns="http://www.w3.org/2000/svg">
<g filter="url(#filter0_b_5_2245)">
<path d="M9 8.65235C9 7.8106 9.52704 7.05895 10.3184 6.77208L26.3184 0.97208C27.6224 0.499365 29 1.46527 29 2.85235V27C29 28.1046 28.1046 29 27 29H11C9.89543 29 9 28.1046 9 27V8.65235Z" fill="url(#paint0_linear_5_2245)" fill-opacity="0.7"/>
</g>
<g filter="url(#filter1_b_5_2245)">
<path d="M0 16.3306C0 15.4041 0.636389 14.5989 1.53786 14.3848L17.5379 10.5848C18.7943 10.2863 20 11.2392 20 12.5306V27C20 28.1046 19.1046 29 18 29H2C0.895431 29 0 28.1046 0 27V16.3306Z" fill="url(#paint1_linear_5_2245)" fill-opacity="0.7"/>
</g>
<defs>
<filter id="filter0_b_5_2245" x="5" y="-3.14941" width="28" height="36.1494" filterUnits="userSpaceOnUse" color-interpolation-filters="sRGB">
<feFlood flood-opacity="0" result="BackgroundImageFix"/>
<feGaussianBlur in="BackgroundImageFix" stdDeviation="2"/>
<feComposite in2="SourceAlpha" operator="in" result="effect1_backgroundBlur_5_2245"/>
<feBlend mode="normal" in="SourceGraphic" in2="effect1_backgroundBlur_5_2245" result="shape"/>
</filter>
<filter id="filter1_b_5_2245" x="-12" y="-1.47021" width="44" height="42.4702" filterUnits="userSpaceOnUse" color-interpolation-filters="sRGB">
<feFlood flood-opacity="0" result="BackgroundImageFix"/>
<feGaussianBlur in="BackgroundImageFix" stdDeviation="6"/>
<feComposite in2="SourceAlpha" operator="in" result="effect1_backgroundBlur_5_2245"/>
<feBlend mode="normal" in="SourceGraphic" in2="effect1_backgroundBlur_5_2245" result="shape"/>
</filter>
<linearGradient id="paint0_linear_5_2245" x1="19" y1="0" x2="19" y2="29" gradientUnits="userSpaceOnUse">
<stop stop-color="#C38BFF"/>
<stop offset="0.473958" stop-color="#AA5BFF"/>
<stop offset="1" stop-color="#9029FF" stop-opacity="0.7"/>
</linearGradient>
<linearGradient id="paint1_linear_5_2245" x1="10" y1="10" x2="10" y2="29" gradientUnits="userSpaceOnUse">
<stop stop-color="#C38BFF"/>
<stop offset="0.473958" stop-color="#AA5BFF"/>
<stop offset="1" stop-color="#9029FF" stop-opacity="0.7"/>
</linearGradient>
</defs>
</svg>
