<svg width="33" height="33" viewBox="0 0 33 33" fill="none" xmlns="http://www.w3.org/2000/svg">
<g clip-path="url(#clip0_5_2248)">
<path d="M15.3593 0.433013C15.8234 0.165064 16.3952 0.165065 16.8593 0.433017L23.2184 4.10449C23.6825 4.37244 23.9684 4.86763 23.9684 5.40352V12.7465C23.9684 13.2824 23.6825 13.7776 23.2184 14.0455L16.8593 17.717C16.3952 17.9849 15.8234 17.9849 15.3593 17.717L9.00008 14.0455C8.53597 13.7776 8.25008 13.2824 8.25008 12.7465V5.40352C8.25008 4.86763 8.53598 4.37244 9.00008 4.10449L15.3593 0.433013Z" fill="url(#paint0_linear_5_2248)" fill-opacity="0.7"/>
<path d="M7.10918 14.6645C7.57328 14.3965 8.14508 14.3965 8.60918 14.6645L14.9684 18.3359C15.4325 18.6039 15.7184 19.0991 15.7184 19.635V26.9779C15.7184 27.5138 15.4325 28.009 14.9684 28.277L8.60918 31.9484C8.14508 32.2164 7.57328 32.2164 7.10918 31.9484L0.749999 28.277C0.285897 28.009 0 27.5138 0 26.9779V19.635C0 19.0991 0.285898 18.6039 0.75 18.3359L7.10918 14.6645Z" fill="url(#paint1_linear_5_2248)" fill-opacity="0.7"/>
<path d="M23.6092 14.6645C24.0733 14.3965 24.6451 14.3965 25.1092 14.6645L31.4684 18.3359C31.9325 18.6039 32.2184 19.0991 32.2184 19.635V26.9779C32.2184 27.5138 31.9325 28.009 31.4684 28.277L25.1092 31.9484C24.6451 32.2164 24.0733 32.2164 23.6092 31.9484L17.25 28.277C16.7859 28.009 16.5 27.5138 16.5 26.9779V19.635C16.5 19.0991 16.7859 18.6039 17.25 18.3359L23.6092 14.6645Z" fill="url(#paint2_linear_5_2248)" fill-opacity="0.7"/>
</g>
<defs>
<linearGradient id="paint0_linear_5_2248" x1="16.1093" y1="0" x2="16.1093" y2="18.15" gradientUnits="userSpaceOnUse">
<stop stop-color="#C38BFF"/>
<stop offset="0.515625" stop-color="#AA5BFF"/>
<stop offset="1" stop-color="#9029FF" stop-opacity="0.7"/>
</linearGradient>
<linearGradient id="paint1_linear_5_2248" x1="7.85918" y1="14.2314" x2="7.85918" y2="32.3814" gradientUnits="userSpaceOnUse">
<stop stop-color="#C38BFF"/>
<stop offset="0.515625" stop-color="#AA5BFF"/>
<stop offset="1" stop-color="#9029FF" stop-opacity="0.7"/>
</linearGradient>
<linearGradient id="paint2_linear_5_2248" x1="24.3592" y1="14.2314" x2="24.3592" y2="32.3814" gradientUnits="userSpaceOnUse">
<stop stop-color="#C38BFF"/>
<stop offset="0.515625" stop-color="#AA5BFF"/>
<stop offset="1" stop-color="#9029FF" stop-opacity="0.7"/>
</linearGradient>
<clipPath id="clip0_5_2248">
<rect width="33" height="33" fill="white"/>
</clipPath>
</defs>
</svg>
