<svg width="658" height="402" viewBox="0 0 658 402" fill="none" xmlns="http://www.w3.org/2000/svg">
<g clip-path="url(#clip0_417_1236)">
<rect x="1" y="1" width="656" height="400" rx="12" fill="white"/>
<path d="M658 128V126.152L656.453 127.163L603.713 161.633L471.299 228.554L342.119 259.015L259.567 269.508L259.548 269.51L259.529 269.514L208.358 278.013L208.355 278.014L146.727 288.01L81.0658 296.007L81.063 296.008L0.87625 306.008L0 306.117V307V443C0 444.105 0.895423 445 2 445H656C657.105 445 658 444.105 658 443V128Z" fill="url(#paint0_linear_417_1236)" stroke="#B775FF" stroke-width="2" stroke-linecap="round"/>
<line x1="0.999634" y1="359.991" x2="657" y2="359.991" stroke="#DBD5D5"/>
<g filter="url(#filter0_b_417_1236)">
<rect x="502" y="208" width="6" height="66" fill="url(#paint1_linear_417_1236)"/>
</g>
<g filter="url(#filter1_bd_417_1236)">
<rect x="498" y="203" width="14" height="14" rx="7" fill="url(#paint2_linear_417_1236)" shape-rendering="crispEdges"/>
<rect x="499" y="204" width="12" height="12" rx="6" stroke="#B775FF" stroke-opacity="0.2" stroke-width="2" shape-rendering="crispEdges"/>
</g>
</g>
<rect x="0.5" y="0.5" width="657" height="401" rx="12.5" stroke="#E6E6E6"/>
<path d="M219.464 385.442H220.906V375.348H219.52C219.422 376.356 218.764 377.028 217.42 377.028H217.028V378.134H219.464V385.442ZM226.481 385.554C228.651 385.554 230.121 383.748 230.121 380.388C230.121 377.112 228.721 375.236 226.495 375.236C224.283 375.236 222.799 377.028 222.799 380.374C222.799 383.664 224.227 385.554 226.481 385.554ZM226.467 384.322C225.095 384.322 224.255 383.16 224.255 380.388C224.255 377.602 225.095 376.454 226.467 376.454C227.839 376.454 228.679 377.616 228.679 380.388C228.679 383.16 227.839 384.322 226.467 384.322ZM237.575 385.442H239.101V381.424L242.895 375.236H241.173L238.373 379.94H238.303L235.531 375.236H233.795L237.575 381.424V385.442ZM244.186 385.442H245.712V381.312H248.75C250.192 381.312 250.57 381.858 250.57 382.894V384.308C250.57 384.784 250.598 385.176 250.724 385.442H252.264C252.096 385.064 252.096 384.686 252.096 384.336V382.628C252.096 381.466 251.634 380.808 250.528 380.612V380.514C251.69 380.206 252.334 379.282 252.334 378.05C252.334 376.244 251.186 375.236 248.946 375.236H244.186V385.442ZM245.712 380.08V376.524H248.736C249.954 376.524 250.766 377.028 250.766 378.246C250.766 379.31 250.192 380.08 248.736 380.08H245.712ZM257.678 385.568C260.282 385.568 261.668 384.378 261.668 382.628C261.668 380.276 259.974 379.828 258.168 379.534C256.208 379.184 255.438 378.96 255.438 377.826C255.438 376.902 256.208 376.3 257.552 376.3C258.868 376.3 259.75 376.888 259.792 378.106H261.346C261.318 376.314 259.946 375.124 257.608 375.124C255.27 375.124 253.856 376.244 253.856 378.036C253.856 379.786 255.06 380.472 257.398 380.878C259.4 381.214 260.086 381.55 260.086 382.768C260.086 383.846 259.134 384.364 257.706 384.364C255.97 384.364 255.214 383.552 255.186 382.25H253.618C253.646 384.21 254.962 385.568 257.678 385.568Z" fill="#959595"/>
<path d="M219.464 385.442H218.464V386.442H219.464V385.442ZM220.906 385.442V386.442H221.906V385.442H220.906ZM220.906 375.348H221.906V374.348H220.906V375.348ZM219.52 375.348V374.348H218.613L218.525 375.251L219.52 375.348ZM217.028 377.028V376.028H216.028V377.028H217.028ZM217.028 378.134H216.028V379.134H217.028V378.134ZM219.464 378.134H220.464V377.134H219.464V378.134ZM219.464 386.442H220.906V384.442H219.464V386.442ZM221.906 385.442V375.348H219.906V385.442H221.906ZM220.906 374.348H219.52V376.348H220.906V374.348ZM218.525 375.251C218.495 375.558 218.394 375.715 218.289 375.805C218.176 375.901 217.931 376.028 217.42 376.028V378.028C218.254 378.028 219.01 377.818 219.586 377.327C220.17 376.829 220.447 376.146 220.516 375.445L218.525 375.251ZM217.42 376.028H217.028V378.028H217.42V376.028ZM216.028 377.028V378.134H218.028V377.028H216.028ZM217.028 379.134H219.464V377.134H217.028V379.134ZM218.464 378.134V385.442H220.464V378.134H218.464ZM226.481 386.554C227.878 386.554 229.09 385.956 229.922 384.822C230.728 383.722 231.121 382.197 231.121 380.388H229.121C229.121 381.939 228.78 382.997 228.309 383.64C227.863 384.248 227.255 384.554 226.481 384.554V386.554ZM231.121 380.388C231.121 378.625 230.747 377.107 229.957 376.002C229.138 374.858 227.927 374.236 226.495 374.236V376.236C227.289 376.236 227.891 376.552 228.33 377.165C228.796 377.816 229.121 378.874 229.121 380.388H231.121ZM226.495 374.236C225.088 374.236 223.862 374.822 223.017 375.951C222.198 377.048 221.799 378.569 221.799 380.374H223.799C223.799 378.832 224.143 377.785 224.619 377.149C225.069 376.546 225.691 376.236 226.495 376.236V374.236ZM221.799 380.374C221.799 382.146 222.182 383.672 222.985 384.783C223.814 385.931 225.038 386.554 226.481 386.554V384.554C225.671 384.554 225.054 384.232 224.606 383.612C224.131 382.955 223.799 381.891 223.799 380.374H221.799ZM226.467 383.322C226.126 383.322 225.902 383.21 225.705 382.881C225.461 382.473 225.255 381.705 225.255 380.388H223.255C223.255 381.843 223.47 383.042 223.989 383.908C224.555 384.853 225.437 385.322 226.467 385.322V383.322ZM225.255 380.388C225.255 379.063 225.461 378.296 225.704 377.891C225.899 377.566 226.121 377.454 226.467 377.454V375.454C225.442 375.454 224.558 375.916 223.99 376.861C223.47 377.727 223.255 378.927 223.255 380.388H225.255ZM226.467 377.454C226.809 377.454 227.033 377.566 227.23 377.895C227.474 378.303 227.679 379.071 227.679 380.388H229.679C229.679 378.933 229.465 377.734 228.946 376.868C228.38 375.923 227.498 375.454 226.467 375.454V377.454ZM227.679 380.388C227.679 381.705 227.474 382.473 227.23 382.881C227.033 383.21 226.809 383.322 226.467 383.322V385.322C227.498 385.322 228.38 384.853 228.946 383.908C229.465 383.042 229.679 381.843 229.679 380.388H227.679ZM237.575 385.442H236.575V386.442H237.575V385.442ZM239.101 385.442V386.442H240.101V385.442H239.101ZM239.101 381.424L238.248 380.901L238.101 381.142V381.424H239.101ZM242.895 375.236L243.747 375.759L244.681 374.236H242.895V375.236ZM241.173 375.236V374.236H240.604L240.314 374.724L241.173 375.236ZM238.373 379.94V380.94H238.941L239.232 380.451L238.373 379.94ZM238.303 379.94L237.441 380.448L237.731 380.94H238.303V379.94ZM235.531 375.236L236.392 374.728L236.102 374.236H235.531V375.236ZM233.795 375.236V374.236H232.012L232.941 375.757L233.795 375.236ZM237.575 381.424H238.575V381.143L238.428 380.903L237.575 381.424ZM237.575 386.442H239.101V384.442H237.575V386.442ZM240.101 385.442V381.424H238.101V385.442H240.101ZM239.953 381.947L243.747 375.759L242.042 374.713L238.248 380.901L239.953 381.947ZM242.895 374.236H241.173V376.236H242.895V374.236ZM240.314 374.724L237.514 379.428L239.232 380.451L242.032 375.747L240.314 374.724ZM238.373 378.94H238.303V380.94H238.373V378.94ZM239.164 379.432L236.392 374.728L234.669 375.744L237.441 380.448L239.164 379.432ZM235.531 374.236H233.795V376.236H235.531V374.236ZM232.941 375.757L236.721 381.945L238.428 380.903L234.648 374.715L232.941 375.757ZM236.575 381.424V385.442H238.575V381.424H236.575ZM244.186 385.442H243.186V386.442H244.186V385.442ZM245.712 385.442V386.442H246.712V385.442H245.712ZM245.712 381.312V380.312H244.712V381.312H245.712ZM250.724 385.442L249.82 385.87L250.091 386.442H250.724V385.442ZM252.264 385.442V386.442H253.803L253.178 385.036L252.264 385.442ZM250.528 380.612H249.528V381.45L250.353 381.597L250.528 380.612ZM250.528 380.514L250.272 379.547L249.528 379.744V380.514H250.528ZM244.186 375.236V374.236H243.186V375.236H244.186ZM245.712 380.08H244.712V381.08H245.712V380.08ZM245.712 376.524V375.524H244.712V376.524H245.712ZM244.186 386.442H245.712V384.442H244.186V386.442ZM246.712 385.442V381.312H244.712V385.442H246.712ZM245.712 382.312H248.75V380.312H245.712V382.312ZM248.75 382.312C249.054 382.312 249.249 382.341 249.371 382.376C249.429 382.392 249.464 382.408 249.483 382.418C249.492 382.423 249.498 382.427 249.501 382.43C249.503 382.431 249.504 382.432 249.504 382.432C249.505 382.433 249.505 382.433 249.505 382.433C249.505 382.433 249.505 382.433 249.505 382.433C249.505 382.433 249.505 382.433 249.505 382.433C249.505 382.433 249.505 382.433 249.506 382.433C249.506 382.434 249.507 382.435 249.508 382.437C249.511 382.442 249.519 382.459 249.529 382.492C249.55 382.564 249.57 382.689 249.57 382.894H251.57C251.57 382.293 251.468 381.55 250.896 380.996C250.338 380.455 249.553 380.312 248.75 380.312V382.312ZM249.57 382.894V384.308H251.57V382.894H249.57ZM249.57 384.308C249.57 384.76 249.585 385.373 249.82 385.87L251.628 385.014C251.63 385.018 251.609 384.973 251.593 384.835C251.577 384.703 251.57 384.532 251.57 384.308H249.57ZM250.724 386.442H252.264V384.442H250.724V386.442ZM253.178 385.036C253.108 384.878 253.096 384.707 253.096 384.336H251.096C251.096 384.665 251.084 385.25 251.35 385.848L253.178 385.036ZM253.096 384.336V382.628H251.096V384.336H253.096ZM253.096 382.628C253.096 381.929 252.959 381.227 252.523 380.653C252.074 380.062 251.423 379.755 250.702 379.627L250.353 381.597C250.739 381.665 250.872 381.785 250.93 381.862C251.002 381.957 251.096 382.165 251.096 382.628H253.096ZM251.528 380.612V380.514H249.528V380.612H251.528ZM250.784 381.481C251.569 381.273 252.224 380.841 252.677 380.214C253.126 379.593 253.334 378.84 253.334 378.05H251.334C251.334 378.491 251.22 378.816 251.056 379.042C250.897 379.263 250.649 379.447 250.272 379.547L250.784 381.481ZM253.334 378.05C253.334 376.924 252.967 375.911 252.124 375.201C251.311 374.515 250.197 374.236 248.946 374.236V376.236C249.935 376.236 250.515 376.461 250.836 376.73C251.127 376.976 251.334 377.369 251.334 378.05H253.334ZM248.946 374.236H244.186V376.236H248.946V374.236ZM243.186 375.236V385.442H245.186V375.236H243.186ZM246.712 380.08V376.524H244.712V380.08H246.712ZM245.712 377.524H248.736V375.524H245.712V377.524ZM248.736 377.524C249.231 377.524 249.482 377.63 249.591 377.715C249.657 377.767 249.766 377.879 249.766 378.246H251.766C251.766 377.395 251.469 376.646 250.824 376.141C250.223 375.67 249.459 375.524 248.736 375.524V377.524ZM249.766 378.246C249.766 378.606 249.671 378.774 249.59 378.855C249.51 378.934 249.295 379.08 248.736 379.08V381.08C249.633 381.08 250.433 380.84 251.004 380.269C251.574 379.699 251.766 378.95 251.766 378.246H249.766ZM248.736 379.08H245.712V381.08H248.736V379.08ZM258.168 379.534L257.992 380.518L258 380.52L258.007 380.521L258.168 379.534ZM259.792 378.106L258.793 378.14L258.826 379.106H259.792V378.106ZM261.346 378.106V379.106H262.362L262.346 378.09L261.346 378.106ZM257.398 380.878L257.227 381.863L257.233 381.864L257.398 380.878ZM255.186 382.25L256.186 382.228L256.165 381.25H255.186V382.25ZM253.618 382.25V381.25H252.604L252.618 382.264L253.618 382.25ZM257.678 386.568C259.118 386.568 260.356 386.241 261.259 385.547C262.192 384.83 262.668 383.794 262.668 382.628H260.668C260.668 383.211 260.451 383.646 260.04 383.961C259.599 384.3 258.843 384.568 257.678 384.568V386.568ZM262.668 382.628C262.668 381.161 262.113 380.134 261.159 379.483C260.303 378.9 259.217 378.692 258.329 378.547L258.007 380.521C258.925 380.67 259.589 380.833 260.032 381.135C260.377 381.37 260.668 381.742 260.668 382.628H262.668ZM258.344 378.549C257.314 378.365 256.814 378.243 256.551 378.098C256.501 378.071 256.478 378.051 256.469 378.043C256.467 378.041 256.466 378.04 256.465 378.039C256.464 378.038 256.464 378.037 256.464 378.037C256.464 378.037 256.464 378.037 256.464 378.038C256.464 378.038 256.464 378.038 256.464 378.038C256.464 378.038 256.464 378.038 256.463 378.037C256.463 378.035 256.462 378.034 256.461 378.031C256.459 378.025 256.456 378.015 256.453 378C256.446 377.967 256.438 377.912 256.438 377.826H254.438C254.438 378.219 254.505 378.627 254.714 379.006C254.928 379.393 255.242 379.66 255.585 379.849C256.197 380.187 257.063 380.352 257.992 380.518L258.344 378.549ZM256.438 377.826C256.438 377.676 256.485 377.595 256.585 377.521C256.719 377.422 257.014 377.3 257.552 377.3V375.3C256.747 375.3 255.985 375.478 255.397 375.912C254.777 376.37 254.438 377.052 254.438 377.826H256.438ZM257.552 377.3C258.078 377.3 258.385 377.419 258.541 377.54C258.665 377.634 258.781 377.79 258.793 378.14L260.792 378.071C260.762 377.204 260.416 376.457 259.758 375.953C259.135 375.474 258.342 375.3 257.552 375.3V377.3ZM259.792 379.106H261.346V377.106H259.792V379.106ZM262.346 378.09C262.328 376.923 261.86 375.89 260.976 375.168C260.111 374.462 258.938 374.124 257.608 374.124V376.124C258.617 376.124 259.298 376.381 259.711 376.718C260.104 377.038 260.337 377.497 260.346 378.122L262.346 378.09ZM257.608 374.124C256.293 374.124 255.114 374.438 254.24 375.12C253.338 375.824 252.856 376.849 252.856 378.036H254.856C254.856 377.43 255.081 377 255.471 376.696C255.889 376.37 256.585 376.124 257.608 376.124V374.124ZM252.856 378.036C252.856 379.189 253.278 380.112 254.154 380.763C254.946 381.353 256.031 381.655 257.227 381.863L257.569 379.893C256.427 379.694 255.741 379.451 255.347 379.158C255.037 378.928 254.856 378.633 254.856 378.036H252.856ZM257.233 381.864C258.26 382.037 258.723 382.182 258.942 382.327C259.016 382.376 259.03 382.405 259.039 382.424C259.055 382.458 259.086 382.551 259.086 382.768H261.086C261.086 382.376 261.032 381.97 260.856 381.588C260.674 381.191 260.391 380.887 260.044 380.657C259.419 380.245 258.538 380.055 257.564 379.892L257.233 381.864ZM259.086 382.768C259.086 382.956 259.031 383.04 258.896 383.126C258.704 383.248 258.324 383.364 257.706 383.364V385.364C258.517 385.364 259.327 385.221 259.967 384.815C260.666 384.372 261.086 383.658 261.086 382.768H259.086ZM257.706 383.364C256.979 383.364 256.632 383.193 256.472 383.049C256.327 382.92 256.196 382.69 256.186 382.228L254.186 382.271C254.204 383.111 254.465 383.939 255.14 384.541C255.798 385.129 256.698 385.364 257.706 385.364V383.364ZM255.186 381.25H253.618V383.25H255.186V381.25ZM252.618 382.264C252.636 383.474 253.059 384.594 253.984 385.398C254.893 386.189 256.163 386.568 257.678 386.568V384.568C256.477 384.568 255.732 384.268 255.296 383.889C254.877 383.525 254.629 382.986 254.618 382.236L252.618 382.264Z" fill="#E6E6E6"/>
<path d="M384.539 385.442H391.315V384.168H386.345C386.849 381.984 391.203 381.228 391.203 378.148C391.203 376.384 389.915 375.222 387.955 375.222C385.897 375.222 384.511 376.51 384.567 378.484H385.981C385.911 377.224 386.709 376.468 387.871 376.468C388.977 376.468 389.705 377.154 389.705 378.218C389.705 380.794 384.539 381.256 384.539 385.19V385.442ZM396.161 385.554C398.331 385.554 399.801 383.748 399.801 380.388C399.801 377.112 398.401 375.236 396.175 375.236C393.963 375.236 392.479 377.028 392.479 380.374C392.479 383.664 393.907 385.554 396.161 385.554ZM396.147 384.322C394.775 384.322 393.935 383.16 393.935 380.388C393.935 377.602 394.775 376.454 396.147 376.454C397.519 376.454 398.359 377.616 398.359 380.388C398.359 383.16 397.519 384.322 396.147 384.322ZM407.255 385.442H408.781V381.424L412.575 375.236H410.853L408.053 379.94H407.983L405.211 375.236H403.475L407.255 381.424V385.442ZM413.866 385.442H415.392V381.312H418.43C419.872 381.312 420.25 381.858 420.25 382.894V384.308C420.25 384.784 420.278 385.176 420.404 385.442H421.944C421.776 385.064 421.776 384.686 421.776 384.336V382.628C421.776 381.466 421.314 380.808 420.208 380.612V380.514C421.37 380.206 422.014 379.282 422.014 378.05C422.014 376.244 420.866 375.236 418.626 375.236H413.866V385.442ZM415.392 380.08V376.524H418.416C419.634 376.524 420.446 377.028 420.446 378.246C420.446 379.31 419.872 380.08 418.416 380.08H415.392ZM427.358 385.568C429.962 385.568 431.348 384.378 431.348 382.628C431.348 380.276 429.654 379.828 427.848 379.534C425.888 379.184 425.118 378.96 425.118 377.826C425.118 376.902 425.888 376.3 427.232 376.3C428.548 376.3 429.43 376.888 429.472 378.106H431.026C430.998 376.314 429.626 375.124 427.288 375.124C424.95 375.124 423.536 376.244 423.536 378.036C423.536 379.786 424.74 380.472 427.078 380.878C429.08 381.214 429.766 381.55 429.766 382.768C429.766 383.846 428.814 384.364 427.386 384.364C425.65 384.364 424.894 383.552 424.866 382.25H423.298C423.326 384.21 424.642 385.568 427.358 385.568Z" fill="#959595"/>
<path d="M384.539 385.442H383.539V386.442H384.539V385.442ZM391.315 385.442V386.442H392.315V385.442H391.315ZM391.315 384.168H392.315V383.168H391.315V384.168ZM386.345 384.168L385.37 383.943L385.088 385.168H386.345V384.168ZM384.567 378.484L383.567 378.512L383.595 379.484H384.567V378.484ZM385.981 378.484V379.484H387.038L386.979 378.428L385.981 378.484ZM384.539 386.442H391.315V384.442H384.539V386.442ZM392.315 385.442V384.168H390.315V385.442H392.315ZM391.315 383.168H386.345V385.168H391.315V383.168ZM387.319 384.393C387.376 384.146 387.56 383.86 387.981 383.486C388.414 383.101 388.926 382.762 389.555 382.299C390.693 381.463 392.203 380.235 392.203 378.148H390.203C390.203 379.141 389.535 379.831 388.37 380.688C387.848 381.073 387.177 381.525 386.652 381.992C386.114 382.47 385.565 383.098 385.37 383.943L387.319 384.393ZM392.203 378.148C392.203 377.009 391.779 375.998 390.983 375.281C390.197 374.572 389.129 374.222 387.955 374.222V376.222C388.74 376.222 389.296 376.453 389.644 376.766C389.982 377.071 390.203 377.523 390.203 378.148H392.203ZM387.955 374.222C386.718 374.222 385.594 374.611 384.778 375.389C383.954 376.174 383.532 377.274 383.567 378.512L385.566 378.456C385.545 377.72 385.788 377.189 386.158 376.837C386.535 376.476 387.133 376.222 387.955 376.222V374.222ZM384.567 379.484H385.981V377.484H384.567V379.484ZM386.979 378.428C386.957 378.026 387.073 377.812 387.181 377.7C387.295 377.583 387.506 377.468 387.871 377.468V375.468C387.073 375.468 386.304 375.731 385.746 376.307C385.182 376.888 384.934 377.682 384.982 378.539L386.979 378.428ZM387.871 377.468C388.216 377.468 388.412 377.572 388.513 377.669C388.609 377.76 388.705 377.923 388.705 378.218H390.705C390.705 377.449 390.436 376.737 389.891 376.219C389.352 375.707 388.631 375.468 387.871 375.468V377.468ZM388.705 378.218C388.705 378.48 388.59 378.748 388.203 379.121C387.787 379.522 387.242 379.876 386.538 380.383C385.236 381.32 383.539 382.683 383.539 385.19H385.539C385.539 383.762 386.425 382.928 387.706 382.006C388.293 381.584 389.039 381.094 389.592 380.561C390.174 379.999 390.705 379.244 390.705 378.218H388.705ZM383.539 385.19V385.442H385.539V385.19H383.539ZM396.161 386.554C397.558 386.554 398.77 385.956 399.602 384.822C400.408 383.722 400.801 382.197 400.801 380.388H398.801C398.801 381.939 398.46 382.997 397.988 383.64C397.542 384.248 396.935 384.554 396.161 384.554V386.554ZM400.801 380.388C400.801 378.625 400.427 377.107 399.636 376.002C398.818 374.858 397.607 374.236 396.175 374.236V376.236C396.969 376.236 397.571 376.552 398.01 377.165C398.475 377.816 398.801 378.874 398.801 380.388H400.801ZM396.175 374.236C394.768 374.236 393.541 374.822 392.697 375.951C391.877 377.048 391.479 378.569 391.479 380.374H393.479C393.479 378.832 393.823 377.785 394.299 377.149C394.749 376.546 395.37 376.236 396.175 376.236V374.236ZM391.479 380.374C391.479 382.146 391.862 383.672 392.665 384.783C393.494 385.931 394.718 386.554 396.161 386.554V384.554C395.35 384.554 394.733 384.232 394.286 383.612C393.811 382.955 393.479 381.891 393.479 380.374H391.479ZM396.147 383.322C395.805 383.322 395.582 383.21 395.385 382.881C395.14 382.473 394.935 381.705 394.935 380.388H392.935C392.935 381.843 393.15 383.042 393.669 383.908C394.235 384.853 395.117 385.322 396.147 385.322V383.322ZM394.935 380.388C394.935 379.063 395.141 378.296 395.384 377.891C395.579 377.566 395.801 377.454 396.147 377.454V375.454C395.121 375.454 394.237 375.916 393.67 376.861C393.15 377.727 392.935 378.927 392.935 380.388H394.935ZM396.147 377.454C396.489 377.454 396.713 377.566 396.91 377.895C397.154 378.303 397.359 379.071 397.359 380.388H399.359C399.359 378.933 399.144 377.734 398.626 376.868C398.06 375.923 397.177 375.454 396.147 375.454V377.454ZM397.359 380.388C397.359 381.705 397.154 382.473 396.91 382.881C396.713 383.21 396.489 383.322 396.147 383.322V385.322C397.177 385.322 398.06 384.853 398.626 383.908C399.144 383.042 399.359 381.843 399.359 380.388H397.359ZM407.255 385.442H406.255V386.442H407.255V385.442ZM408.781 385.442V386.442H409.781V385.442H408.781ZM408.781 381.424L407.928 380.901L407.781 381.142V381.424H408.781ZM412.575 375.236L413.427 375.759L414.361 374.236H412.575V375.236ZM410.853 375.236V374.236H410.284L409.993 374.724L410.853 375.236ZM408.053 379.94V380.94H408.621L408.912 380.451L408.053 379.94ZM407.983 379.94L407.121 380.448L407.411 380.94H407.983V379.94ZM405.211 375.236L406.072 374.728L405.782 374.236H405.211V375.236ZM403.475 375.236V374.236H401.692L402.621 375.757L403.475 375.236ZM407.255 381.424H408.255V381.143L408.108 380.903L407.255 381.424ZM407.255 386.442H408.781V384.442H407.255V386.442ZM409.781 385.442V381.424H407.781V385.442H409.781ZM409.633 381.947L413.427 375.759L411.722 374.713L407.928 380.901L409.633 381.947ZM412.575 374.236H410.853V376.236H412.575V374.236ZM409.993 374.724L407.193 379.428L408.912 380.451L411.712 375.747L409.993 374.724ZM408.053 378.94H407.983V380.94H408.053V378.94ZM408.844 379.432L406.072 374.728L404.349 375.744L407.121 380.448L408.844 379.432ZM405.211 374.236H403.475V376.236H405.211V374.236ZM402.621 375.757L406.401 381.945L408.108 380.903L404.328 374.715L402.621 375.757ZM406.255 381.424V385.442H408.255V381.424H406.255ZM413.866 385.442H412.866V386.442H413.866V385.442ZM415.392 385.442V386.442H416.392V385.442H415.392ZM415.392 381.312V380.312H414.392V381.312H415.392ZM420.404 385.442L419.5 385.87L419.771 386.442H420.404V385.442ZM421.944 385.442V386.442H423.483L422.858 385.036L421.944 385.442ZM420.208 380.612H419.208V381.45L420.033 381.597L420.208 380.612ZM420.208 380.514L419.952 379.547L419.208 379.744V380.514H420.208ZM413.866 375.236V374.236H412.866V375.236H413.866ZM415.392 380.08H414.392V381.08H415.392V380.08ZM415.392 376.524V375.524H414.392V376.524H415.392ZM413.866 386.442H415.392V384.442H413.866V386.442ZM416.392 385.442V381.312H414.392V385.442H416.392ZM415.392 382.312H418.43V380.312H415.392V382.312ZM418.43 382.312C418.733 382.312 418.929 382.341 419.05 382.376C419.109 382.392 419.144 382.408 419.163 382.418C419.172 382.423 419.178 382.427 419.181 382.43C419.182 382.431 419.183 382.432 419.184 382.432C419.185 382.433 419.185 382.433 419.185 382.433C419.185 382.433 419.185 382.433 419.185 382.433C419.185 382.433 419.185 382.433 419.185 382.433C419.185 382.433 419.185 382.433 419.185 382.433C419.186 382.434 419.186 382.435 419.187 382.437C419.191 382.442 419.199 382.459 419.209 382.492C419.23 382.564 419.25 382.689 419.25 382.894H421.25C421.25 382.293 421.148 381.55 420.576 380.996C420.018 380.455 419.233 380.312 418.43 380.312V382.312ZM419.25 382.894V384.308H421.25V382.894H419.25ZM419.25 384.308C419.25 384.76 419.265 385.373 419.5 385.87L421.308 385.014C421.309 385.018 421.289 384.973 421.273 384.835C421.257 384.703 421.25 384.532 421.25 384.308H419.25ZM420.404 386.442H421.944V384.442H420.404V386.442ZM422.858 385.036C422.788 384.878 422.776 384.707 422.776 384.336H420.776C420.776 384.665 420.764 385.25 421.03 385.848L422.858 385.036ZM422.776 384.336V382.628H420.776V384.336H422.776ZM422.776 382.628C422.776 381.929 422.639 381.227 422.203 380.653C421.754 380.062 421.103 379.755 420.382 379.627L420.033 381.597C420.419 381.665 420.551 381.785 420.61 381.862C420.682 381.957 420.776 382.165 420.776 382.628H422.776ZM421.208 380.612V380.514H419.208V380.612H421.208ZM420.464 381.481C421.249 381.273 421.904 380.841 422.357 380.214C422.806 379.593 423.014 378.84 423.014 378.05H421.014C421.014 378.491 420.9 378.816 420.736 379.042C420.577 379.263 420.329 379.447 419.952 379.547L420.464 381.481ZM423.014 378.05C423.014 376.924 422.647 375.911 421.804 375.201C420.99 374.515 419.877 374.236 418.626 374.236V376.236C419.615 376.236 420.195 376.461 420.515 376.73C420.807 376.976 421.014 377.369 421.014 378.05H423.014ZM418.626 374.236H413.866V376.236H418.626V374.236ZM412.866 375.236V385.442H414.866V375.236H412.866ZM416.392 380.08V376.524H414.392V380.08H416.392ZM415.392 377.524H418.416V375.524H415.392V377.524ZM418.416 377.524C418.911 377.524 419.162 377.63 419.271 377.715C419.337 377.767 419.446 377.879 419.446 378.246H421.446C421.446 377.395 421.149 376.646 420.504 376.141C419.903 375.67 419.139 375.524 418.416 375.524V377.524ZM419.446 378.246C419.446 378.606 419.351 378.774 419.27 378.855C419.19 378.934 418.974 379.08 418.416 379.08V381.08C419.313 381.08 420.113 380.84 420.684 380.269C421.254 379.699 421.446 378.95 421.446 378.246H419.446ZM418.416 379.08H415.392V381.08H418.416V379.08ZM427.848 379.534L427.672 380.518L427.68 380.52L427.687 380.521L427.848 379.534ZM429.472 378.106L428.473 378.14L428.506 379.106H429.472V378.106ZM431.026 378.106V379.106H432.042L432.026 378.09L431.026 378.106ZM427.078 380.878L426.907 381.863L426.912 381.864L427.078 380.878ZM424.866 382.25L425.866 382.228L425.845 381.25H424.866V382.25ZM423.298 382.25V381.25H422.284L422.298 382.264L423.298 382.25ZM427.358 386.568C428.797 386.568 430.036 386.241 430.939 385.547C431.872 384.83 432.348 383.794 432.348 382.628H430.348C430.348 383.211 430.131 383.646 429.72 383.961C429.279 384.3 428.523 384.568 427.358 384.568V386.568ZM432.348 382.628C432.348 381.161 431.793 380.134 430.839 379.483C429.983 378.9 428.897 378.692 428.009 378.547L427.687 380.521C428.605 380.67 429.269 380.833 429.712 381.135C430.056 381.37 430.348 381.742 430.348 382.628H432.348ZM428.024 378.549C426.993 378.365 426.494 378.243 426.231 378.098C426.181 378.071 426.158 378.051 426.149 378.043C426.147 378.041 426.146 378.04 426.145 378.039C426.144 378.038 426.144 378.037 426.143 378.037C426.143 378.037 426.144 378.037 426.144 378.038C426.144 378.038 426.144 378.038 426.144 378.038C426.144 378.038 426.144 378.038 426.143 378.037C426.143 378.035 426.142 378.034 426.141 378.031C426.139 378.025 426.136 378.015 426.132 378C426.125 377.967 426.118 377.912 426.118 377.826H424.118C424.118 378.219 424.184 378.627 424.394 379.006C424.608 379.393 424.922 379.66 425.265 379.849C425.877 380.187 426.743 380.352 427.672 380.518L428.024 378.549ZM426.118 377.826C426.118 377.676 426.164 377.595 426.265 377.521C426.398 377.422 426.694 377.3 427.232 377.3V375.3C426.426 375.3 425.665 375.478 425.077 375.912C424.457 376.37 424.118 377.052 424.118 377.826H426.118ZM427.232 377.3C427.758 377.3 428.064 377.419 428.221 377.54C428.344 377.634 428.461 377.79 428.473 378.14L430.471 378.071C430.441 377.204 430.096 376.457 429.438 375.953C428.815 375.474 428.022 375.3 427.232 375.3V377.3ZM429.472 379.106H431.026V377.106H429.472V379.106ZM432.026 378.09C432.008 376.923 431.54 375.89 430.656 375.168C429.791 374.462 428.617 374.124 427.288 374.124V376.124C428.297 376.124 428.978 376.381 429.391 376.718C429.784 377.038 430.016 377.497 430.026 378.122L432.026 378.09ZM427.288 374.124C425.973 374.124 424.794 374.438 423.92 375.12C423.018 375.824 422.536 376.849 422.536 378.036H424.536C424.536 377.43 424.761 377 425.151 376.696C425.568 376.37 426.265 376.124 427.288 376.124V374.124ZM422.536 378.036C422.536 379.189 422.957 380.112 423.834 380.763C424.626 381.353 425.711 381.655 426.907 381.863L427.249 379.893C426.107 379.694 425.421 379.451 425.027 379.158C424.717 378.928 424.536 378.633 424.536 378.036H422.536ZM426.912 381.864C427.94 382.037 428.403 382.182 428.622 382.327C428.696 382.376 428.71 382.405 428.719 382.424C428.735 382.458 428.766 382.551 428.766 382.768H430.766C430.766 382.376 430.712 381.97 430.536 381.588C430.354 381.191 430.071 380.887 429.723 380.657C429.099 380.245 428.218 380.055 427.244 379.892L426.912 381.864ZM428.766 382.768C428.766 382.956 428.711 383.04 428.576 383.126C428.383 383.248 428.004 383.364 427.386 383.364V385.364C428.196 385.364 429.007 385.221 429.647 384.815C430.345 384.372 430.766 383.658 430.766 382.768H428.766ZM427.386 383.364C426.659 383.364 426.312 383.193 426.152 383.049C426.007 382.92 425.876 382.69 425.866 382.228L423.866 382.271C423.884 383.111 424.145 383.939 424.819 384.541C425.478 385.129 426.377 385.364 427.386 385.364V383.364ZM424.866 381.25H423.298V383.25H424.866V381.25ZM422.298 382.264C422.315 383.474 422.739 384.594 423.664 385.398C424.573 386.189 425.843 386.568 427.358 386.568V384.568C426.157 384.568 425.411 384.268 424.976 383.889C424.557 383.525 424.309 382.986 424.298 382.236L422.298 382.264Z" fill="#E6E6E6"/>
<path d="M553.149 385.568C555.263 385.568 556.677 384.392 556.677 382.628C556.677 381.41 556.047 380.514 554.955 380.248V380.164C555.893 379.856 556.523 379.002 556.523 377.882C556.523 376.272 555.235 375.222 553.233 375.222C551.147 375.222 549.789 376.482 549.789 378.414H551.203C551.217 377.238 551.931 376.468 553.177 376.468C554.297 376.468 555.039 377.042 555.039 378.05C555.039 378.988 554.423 379.702 553.261 379.702H552.239V380.808H553.345C554.451 380.808 555.193 381.368 555.193 382.502C555.193 383.608 554.381 384.322 553.149 384.322C551.903 384.322 551.091 383.524 551.119 382.334H549.705C549.705 384.28 551.007 385.568 553.149 385.568ZM561.589 385.554C563.759 385.554 565.229 383.748 565.229 380.388C565.229 377.112 563.829 375.236 561.603 375.236C559.391 375.236 557.907 377.028 557.907 380.374C557.907 383.664 559.335 385.554 561.589 385.554ZM561.575 384.322C560.203 384.322 559.363 383.16 559.363 380.388C559.363 377.602 560.203 376.454 561.575 376.454C562.947 376.454 563.787 377.616 563.787 380.388C563.787 383.16 562.947 384.322 561.575 384.322ZM572.682 385.442H574.208V381.424L578.002 375.236H576.28L573.48 379.94H573.41L570.638 375.236H568.902L572.682 381.424V385.442ZM579.293 385.442H580.819V381.312H583.857C585.299 381.312 585.677 381.858 585.677 382.894V384.308C585.677 384.784 585.705 385.176 585.831 385.442H587.371C587.203 385.064 587.203 384.686 587.203 384.336V382.628C587.203 381.466 586.741 380.808 585.635 380.612V380.514C586.797 380.206 587.441 379.282 587.441 378.05C587.441 376.244 586.293 375.236 584.053 375.236H579.293V385.442ZM580.819 380.08V376.524H583.843C585.061 376.524 585.873 377.028 585.873 378.246C585.873 379.31 585.299 380.08 583.843 380.08H580.819ZM592.785 385.568C595.389 385.568 596.775 384.378 596.775 382.628C596.775 380.276 595.081 379.828 593.275 379.534C591.315 379.184 590.545 378.96 590.545 377.826C590.545 376.902 591.315 376.3 592.659 376.3C593.975 376.3 594.857 376.888 594.899 378.106H596.453C596.425 376.314 595.053 375.124 592.715 375.124C590.377 375.124 588.963 376.244 588.963 378.036C588.963 379.786 590.167 380.472 592.505 380.878C594.507 381.214 595.193 381.55 595.193 382.768C595.193 383.846 594.241 384.364 592.813 384.364C591.077 384.364 590.321 383.552 590.293 382.25H588.725C588.753 384.21 590.069 385.568 592.785 385.568Z" fill="#959595"/>
<path d="M554.955 380.248H553.955V381.034L554.718 381.219L554.955 380.248ZM554.955 380.164L554.643 379.214L553.955 379.44V380.164H554.955ZM549.789 378.414H548.789V379.414H549.789V378.414ZM551.203 378.414V379.414H552.191L552.203 378.426L551.203 378.414ZM552.239 379.702V378.702H551.239V379.702H552.239ZM552.239 380.808H551.239V381.808H552.239V380.808ZM551.119 382.334L552.118 382.357L552.143 381.334H551.119V382.334ZM549.705 382.334V381.334H548.705V382.334H549.705ZM553.149 386.568C554.384 386.568 555.51 386.224 556.345 385.528C557.197 384.818 557.677 383.799 557.677 382.628H555.677C555.677 383.221 555.449 383.671 555.066 383.991C554.666 384.324 554.027 384.568 553.149 384.568V386.568ZM557.677 382.628C557.677 381.847 557.474 381.105 557.038 380.498C556.596 379.883 555.956 379.462 555.191 379.276L554.718 381.219C555.046 381.299 555.266 381.46 555.413 381.664C555.565 381.875 555.677 382.19 555.677 382.628H557.677ZM555.955 380.248V380.164H553.955V380.248H555.955ZM555.267 381.114C556.639 380.663 557.523 379.408 557.523 377.882H555.523C555.523 378.596 555.146 379.048 554.643 379.214L555.267 381.114ZM557.523 377.882C557.523 376.786 557.073 375.831 556.258 375.171C555.464 374.528 554.399 374.222 553.233 374.222V376.222C554.068 376.222 554.649 376.441 554.999 376.725C555.329 376.992 555.523 377.368 555.523 377.882H557.523ZM553.233 374.222C551.99 374.222 550.869 374.6 550.049 375.36C549.221 376.127 548.789 377.203 548.789 378.414H550.789C550.789 377.693 551.035 377.172 551.408 376.827C551.789 376.474 552.39 376.222 553.233 376.222V374.222ZM549.789 379.414H551.203V377.414H549.789V379.414ZM552.203 378.426C552.207 378.037 552.323 377.82 552.438 377.703C552.55 377.591 552.764 377.468 553.177 377.468V375.468C552.344 375.468 551.577 375.73 551.017 376.296C550.46 376.859 550.212 377.615 550.203 378.402L552.203 378.426ZM553.177 377.468C553.577 377.468 553.793 377.571 553.89 377.651C553.963 377.712 554.039 377.813 554.039 378.05H556.039C556.039 377.279 555.743 376.589 555.165 376.111C554.611 375.652 553.896 375.468 553.177 375.468V377.468ZM554.039 378.05C554.039 378.298 553.961 378.439 553.883 378.516C553.806 378.592 553.633 378.702 553.261 378.702V380.702C554.05 380.702 554.766 380.455 555.288 379.939C555.808 379.425 556.039 378.74 556.039 378.05H554.039ZM553.261 378.702H552.239V380.702H553.261V378.702ZM551.239 379.702V380.808H553.239V379.702H551.239ZM552.239 381.808H553.345V379.808H552.239V381.808ZM553.345 381.808C553.742 381.808 553.941 381.909 554.027 381.984C554.092 382.04 554.193 382.165 554.193 382.502H556.193C556.193 381.704 555.923 380.982 555.34 380.475C554.779 379.987 554.054 379.808 553.345 379.808V381.808ZM554.193 382.502C554.193 382.795 554.093 382.968 553.969 383.079C553.833 383.2 553.576 383.322 553.149 383.322V385.322C553.954 385.322 554.719 385.087 555.296 384.575C555.886 384.051 556.193 383.315 556.193 382.502H554.193ZM553.149 383.322C552.741 383.322 552.493 383.195 552.356 383.06C552.223 382.929 552.11 382.712 552.118 382.357L550.119 382.31C550.099 383.146 550.379 383.922 550.956 384.488C551.529 385.05 552.311 385.322 553.149 385.322V383.322ZM551.119 381.334H549.705V383.334H551.119V381.334ZM548.705 382.334C548.705 383.537 549.113 384.622 549.934 385.405C550.75 386.183 551.877 386.568 553.149 386.568V384.568C552.278 384.568 551.683 384.309 551.313 383.957C550.948 383.608 550.705 383.077 550.705 382.334H548.705ZM561.589 386.554C562.985 386.554 564.197 385.956 565.029 384.822C565.835 383.722 566.229 382.197 566.229 380.388H564.229C564.229 381.939 563.887 382.997 563.416 383.64C562.97 384.248 562.362 384.554 561.589 384.554V386.554ZM566.229 380.388C566.229 378.625 565.854 377.107 565.064 376.002C564.246 374.858 563.035 374.236 561.603 374.236V376.236C562.397 376.236 562.999 376.552 563.437 377.165C563.903 377.816 564.229 378.874 564.229 380.388H566.229ZM561.603 374.236C560.195 374.236 558.969 374.822 558.124 375.951C557.305 377.048 556.907 378.569 556.907 380.374H558.907C558.907 378.832 559.25 377.785 559.726 377.149C560.176 376.546 560.798 376.236 561.603 376.236V374.236ZM556.907 380.374C556.907 382.146 557.289 383.672 558.092 384.783C558.921 385.931 560.145 386.554 561.589 386.554V384.554C560.778 384.554 560.161 384.232 559.713 383.612C559.238 382.955 558.907 381.891 558.907 380.374H556.907ZM561.575 383.322C561.233 383.322 561.009 383.21 560.812 382.881C560.568 382.473 560.363 381.705 560.363 380.388H558.363C558.363 381.843 558.577 383.042 559.096 383.908C559.662 384.853 560.544 385.322 561.575 385.322V383.322ZM560.363 380.388C560.363 379.063 560.568 378.296 560.811 377.891C561.006 377.566 561.228 377.454 561.575 377.454V375.454C560.549 375.454 559.665 375.916 559.097 376.861C558.577 377.727 558.363 378.927 558.363 380.388H560.363ZM561.575 377.454C561.916 377.454 562.14 377.566 562.337 377.895C562.581 378.303 562.787 379.071 562.787 380.388H564.787C564.787 378.933 564.572 377.734 564.053 376.868C563.487 375.923 562.605 375.454 561.575 375.454V377.454ZM562.787 380.388C562.787 381.705 562.581 382.473 562.337 382.881C562.14 383.21 561.916 383.322 561.575 383.322V385.322C562.605 385.322 563.487 384.853 564.053 383.908C564.572 383.042 564.787 381.843 564.787 380.388H562.787ZM572.682 385.442H571.682V386.442H572.682V385.442ZM574.208 385.442V386.442H575.208V385.442H574.208ZM574.208 381.424L573.355 380.901L573.208 381.142V381.424H574.208ZM578.002 375.236L578.854 375.759L579.788 374.236H578.002V375.236ZM576.28 375.236V374.236H575.711L575.421 374.724L576.28 375.236ZM573.48 379.94V380.94H574.048L574.339 380.451L573.48 379.94ZM573.41 379.94L572.548 380.448L572.838 380.94H573.41V379.94ZM570.638 375.236L571.499 374.728L571.209 374.236H570.638V375.236ZM568.902 375.236V374.236H567.119L568.049 375.757L568.902 375.236ZM572.682 381.424H573.682V381.143L573.535 380.903L572.682 381.424ZM572.682 386.442H574.208V384.442H572.682V386.442ZM575.208 385.442V381.424H573.208V385.442H575.208ZM575.06 381.947L578.854 375.759L577.149 374.713L573.355 380.901L575.06 381.947ZM578.002 374.236H576.28V376.236H578.002V374.236ZM575.421 374.724L572.621 379.428L574.339 380.451L577.139 375.747L575.421 374.724ZM573.48 378.94H573.41V380.94H573.48V378.94ZM574.271 379.432L571.499 374.728L569.776 375.744L572.548 380.448L574.271 379.432ZM570.638 374.236H568.902V376.236H570.638V374.236ZM568.049 375.757L571.829 381.945L573.535 380.903L569.755 374.715L568.049 375.757ZM571.682 381.424V385.442H573.682V381.424H571.682ZM579.293 385.442H578.293V386.442H579.293V385.442ZM580.819 385.442V386.442H581.819V385.442H580.819ZM580.819 381.312V380.312H579.819V381.312H580.819ZM585.831 385.442L584.927 385.87L585.198 386.442H585.831V385.442ZM587.371 385.442V386.442H588.91L588.285 385.036L587.371 385.442ZM585.635 380.612H584.635V381.45L585.461 381.597L585.635 380.612ZM585.635 380.514L585.379 379.547L584.635 379.744V380.514H585.635ZM579.293 375.236V374.236H578.293V375.236H579.293ZM580.819 380.08H579.819V381.08H580.819V380.08ZM580.819 376.524V375.524H579.819V376.524H580.819ZM579.293 386.442H580.819V384.442H579.293V386.442ZM581.819 385.442V381.312H579.819V385.442H581.819ZM580.819 382.312H583.857V380.312H580.819V382.312ZM583.857 382.312C584.161 382.312 584.356 382.341 584.478 382.376C584.536 382.392 584.571 382.408 584.59 382.418C584.599 382.423 584.605 382.427 584.608 382.43C584.61 382.431 584.611 382.432 584.611 382.432C584.612 382.433 584.612 382.433 584.612 382.433C584.612 382.433 584.612 382.433 584.612 382.433C584.612 382.433 584.612 382.433 584.612 382.433C584.612 382.433 584.612 382.433 584.613 382.433C584.613 382.434 584.614 382.435 584.615 382.437C584.618 382.442 584.626 382.459 584.636 382.492C584.657 382.564 584.677 382.689 584.677 382.894H586.677C586.677 382.293 586.575 381.55 586.003 380.996C585.445 380.455 584.66 380.312 583.857 380.312V382.312ZM584.677 382.894V384.308H586.677V382.894H584.677ZM584.677 384.308C584.677 384.76 584.692 385.373 584.927 385.87L586.735 385.014C586.737 385.018 586.716 384.973 586.7 384.835C586.684 384.703 586.677 384.532 586.677 384.308H584.677ZM585.831 386.442H587.371V384.442H585.831V386.442ZM588.285 385.036C588.215 384.878 588.203 384.707 588.203 384.336H586.203C586.203 384.665 586.191 385.25 586.457 385.848L588.285 385.036ZM588.203 384.336V382.628H586.203V384.336H588.203ZM588.203 382.628C588.203 381.929 588.066 381.227 587.63 380.653C587.182 380.062 586.53 379.755 585.81 379.627L585.461 381.597C585.846 381.665 585.979 381.785 586.037 381.862C586.109 381.957 586.203 382.165 586.203 382.628H588.203ZM586.635 380.612V380.514H584.635V380.612H586.635ZM585.891 381.481C586.676 381.273 587.331 380.841 587.784 380.214C588.233 379.593 588.441 378.84 588.441 378.05H586.441C586.441 378.491 586.327 378.816 586.164 379.042C586.004 379.263 585.756 379.447 585.379 379.547L585.891 381.481ZM588.441 378.05C588.441 376.924 588.074 375.911 587.231 375.201C586.418 374.515 585.304 374.236 584.053 374.236V376.236C585.042 376.236 585.622 376.461 585.943 376.73C586.234 376.976 586.441 377.369 586.441 378.05H588.441ZM584.053 374.236H579.293V376.236H584.053V374.236ZM578.293 375.236V385.442H580.293V375.236H578.293ZM581.819 380.08V376.524H579.819V380.08H581.819ZM580.819 377.524H583.843V375.524H580.819V377.524ZM583.843 377.524C584.338 377.524 584.589 377.63 584.698 377.715C584.764 377.767 584.873 377.879 584.873 378.246H586.873C586.873 377.395 586.576 376.646 585.931 376.141C585.33 375.67 584.566 375.524 583.843 375.524V377.524ZM584.873 378.246C584.873 378.606 584.778 378.774 584.697 378.855C584.617 378.934 584.402 379.08 583.843 379.08V381.08C584.74 381.08 585.54 380.84 586.111 380.269C586.681 379.699 586.873 378.95 586.873 378.246H584.873ZM583.843 379.08H580.819V381.08H583.843V379.08ZM593.275 379.534L593.099 380.518L593.107 380.52L593.115 380.521L593.275 379.534ZM594.899 378.106L593.9 378.14L593.933 379.106H594.899V378.106ZM596.453 378.106V379.106H597.469L597.453 378.09L596.453 378.106ZM592.505 380.878L592.334 381.863L592.34 381.864L592.505 380.878ZM590.293 382.25L591.293 382.228L591.272 381.25H590.293V382.25ZM588.725 382.25V381.25H587.711L587.725 382.264L588.725 382.25ZM592.785 386.568C594.225 386.568 595.463 386.241 596.366 385.547C597.299 384.83 597.775 383.794 597.775 382.628H595.775C595.775 383.211 595.558 383.646 595.148 383.961C594.706 384.3 593.95 384.568 592.785 384.568V386.568ZM597.775 382.628C597.775 381.161 597.22 380.134 596.266 379.483C595.411 378.9 594.325 378.692 593.436 378.547L593.115 380.521C594.032 380.67 594.696 380.833 595.139 381.135C595.484 381.37 595.775 381.742 595.775 382.628H597.775ZM593.451 378.549C592.421 378.365 591.921 378.243 591.659 378.098C591.608 378.071 591.585 378.051 591.576 378.043C591.574 378.041 591.573 378.04 591.572 378.039C591.571 378.038 591.571 378.037 591.571 378.037C591.571 378.037 591.571 378.037 591.571 378.038C591.571 378.038 591.571 378.038 591.571 378.038C591.571 378.038 591.571 378.038 591.571 378.037C591.57 378.035 591.569 378.034 591.568 378.031C591.566 378.025 591.563 378.015 591.56 378C591.553 377.967 591.545 377.912 591.545 377.826H589.545C589.545 378.219 589.612 378.627 589.821 379.006C590.035 379.393 590.349 379.66 590.692 379.849C591.304 380.187 592.17 380.352 593.099 380.518L593.451 378.549ZM591.545 377.826C591.545 377.676 591.592 377.595 591.692 377.521C591.826 377.422 592.121 377.3 592.659 377.3V375.3C591.854 375.3 591.092 375.478 590.505 375.912C589.884 376.37 589.545 377.052 589.545 377.826H591.545ZM592.659 377.3C593.185 377.3 593.492 377.419 593.648 377.54C593.772 377.634 593.888 377.79 593.9 378.14L595.899 378.071C595.869 377.204 595.523 376.457 594.866 375.953C594.242 375.474 593.449 375.3 592.659 375.3V377.3ZM594.899 379.106H596.453V377.106H594.899V379.106ZM597.453 378.09C597.435 376.923 596.967 375.89 596.083 375.168C595.218 374.462 594.045 374.124 592.715 374.124V376.124C593.724 376.124 594.405 376.381 594.818 376.718C595.211 377.038 595.444 377.497 595.453 378.122L597.453 378.09ZM592.715 374.124C591.4 374.124 590.221 374.438 589.347 375.12C588.445 375.824 587.963 376.849 587.963 378.036H589.963C589.963 377.43 590.188 377 590.578 376.696C590.996 376.37 591.693 376.124 592.715 376.124V374.124ZM587.963 378.036C587.963 379.189 588.385 380.112 589.261 380.763C590.053 381.353 591.138 381.655 592.334 381.863L592.676 379.893C591.534 379.694 590.848 379.451 590.454 379.158C590.144 378.928 589.963 378.633 589.963 378.036H587.963ZM592.34 381.864C593.368 382.037 593.83 382.182 594.049 382.327C594.123 382.376 594.138 382.405 594.146 382.424C594.162 382.458 594.193 382.551 594.193 382.768H596.193C596.193 382.376 596.139 381.97 595.963 381.588C595.781 381.191 595.499 380.887 595.151 380.657C594.526 380.245 593.645 380.055 592.671 379.892L592.34 381.864ZM594.193 382.768C594.193 382.956 594.138 383.04 594.003 383.126C593.811 383.248 593.431 383.364 592.813 383.364V385.364C593.624 385.364 594.434 385.221 595.074 384.815C595.773 384.372 596.193 383.658 596.193 382.768H594.193ZM592.813 383.364C592.086 383.364 591.739 383.193 591.579 383.049C591.434 382.92 591.303 382.69 591.293 382.228L589.293 382.271C589.312 383.111 589.573 383.939 590.247 384.541C590.905 385.129 591.805 385.364 592.813 385.364V383.364ZM590.293 381.25H588.725V383.25H590.293V381.25ZM587.725 382.264C587.743 383.474 588.166 384.594 589.091 385.398C590 386.189 591.27 386.568 592.785 386.568V384.568C591.584 384.568 590.839 384.268 590.404 383.889C589.984 383.525 589.736 382.986 589.725 382.236L587.725 382.264Z" fill="#E6E6E6"/>
<path d="M64.036 385H65.562V376.124H68.796V374.794H60.83V376.124H64.036V385ZM74.0693 385.126C77.0933 385.126 79.1093 383.152 79.1093 379.904C79.1093 376.656 77.1073 374.682 74.0693 374.682C71.0453 374.682 69.0433 376.656 69.0433 379.904C69.0433 383.138 71.0313 385.126 74.0693 385.126ZM74.0693 383.81C71.9553 383.81 70.6113 382.382 70.6113 379.904C70.6113 377.426 71.9413 375.998 74.0693 375.998C76.1973 375.998 77.5413 377.426 77.5413 379.904C77.5413 382.368 76.1973 383.81 74.0693 383.81ZM80.8853 385H85.0153C87.9553 385 89.6353 382.97 89.6353 379.904C89.6353 376.838 87.9553 374.794 85.0153 374.794H80.8853V385ZM82.4113 383.684V376.11H84.7913C86.7513 376.11 88.0673 377.286 88.0673 379.876C88.0673 382.466 86.7653 383.684 84.7913 383.684H82.4113ZM89.8671 385H91.4631L92.3031 382.62H96.8251L97.6651 385H99.2611L95.6351 374.794H93.4931L89.8671 385ZM92.6671 381.43L93.8151 378.28L94.5291 376.194H94.6131L95.3271 378.28L96.4471 381.43H92.6671ZM101.809 385H103.335V380.982L107.129 374.794H105.407L102.607 379.498H102.537L99.7653 374.794H98.0293L101.809 380.982V385Z" fill="#959595"/>
<path d="M64.036 385H63.036V386H64.036V385ZM65.562 385V386H66.562V385H65.562ZM65.562 376.124V375.124H64.562V376.124H65.562ZM68.796 376.124V377.124H69.796V376.124H68.796ZM68.796 374.794H69.796V373.794H68.796V374.794ZM60.83 374.794V373.794H59.83V374.794H60.83ZM60.83 376.124H59.83V377.124H60.83V376.124ZM64.036 376.124H65.036V375.124H64.036V376.124ZM64.036 386H65.562V384H64.036V386ZM66.562 385V376.124H64.562V385H66.562ZM65.562 377.124H68.796V375.124H65.562V377.124ZM69.796 376.124V374.794H67.796V376.124H69.796ZM68.796 373.794H60.83V375.794H68.796V373.794ZM59.83 374.794V376.124H61.83V374.794H59.83ZM60.83 377.124H64.036V375.124H60.83V377.124ZM63.036 376.124V385H65.036V376.124H63.036ZM74.0693 386.126C75.8034 386.126 77.337 385.555 78.4374 384.433C79.5365 383.312 80.1093 381.737 80.1093 379.904H78.1093C78.1093 381.319 77.6742 382.355 77.0093 383.033C76.3457 383.71 75.3593 384.126 74.0693 384.126V386.126ZM80.1093 379.904C80.1093 378.073 79.5412 376.497 78.4433 375.376C77.3439 374.252 75.8094 373.682 74.0693 373.682V375.682C75.3673 375.682 76.3528 376.099 77.0139 376.774C77.6765 377.452 78.1093 378.487 78.1093 379.904H80.1093ZM74.0693 373.682C72.335 373.682 70.8041 374.253 69.7069 375.376C68.6115 376.498 68.0433 378.073 68.0433 379.904H70.0433C70.0433 378.487 70.4762 377.451 71.1378 376.774C71.7976 376.098 72.7796 375.682 74.0693 375.682V373.682ZM68.0433 379.904C68.0433 381.727 68.6074 383.302 69.7003 384.425C70.7956 385.551 72.3271 386.126 74.0693 386.126V384.126C72.7736 384.126 71.7921 383.707 71.1339 383.03C70.4733 382.351 70.0433 381.315 70.0433 379.904H68.0433ZM74.0693 382.81C73.2478 382.81 72.6715 382.54 72.2908 382.117C71.8988 381.682 71.6113 380.969 71.6113 379.904H69.6113C69.6113 381.317 69.9958 382.557 70.8044 383.455C71.6242 384.366 72.7769 384.81 74.0693 384.81V382.81ZM71.6113 379.904C71.6113 378.837 71.8967 378.124 72.2865 377.69C72.6643 377.269 73.2393 376.998 74.0693 376.998V374.998C72.7714 374.998 71.6173 375.441 70.7982 376.354C69.991 377.253 69.6113 378.493 69.6113 379.904H71.6113ZM74.0693 376.998C74.8998 376.998 75.4795 377.269 75.8611 377.692C76.2539 378.127 76.5413 378.839 76.5413 379.904H78.5413C78.5413 378.491 78.1568 377.25 77.3456 376.352C76.5232 375.441 75.3669 374.998 74.0693 374.998V376.998ZM76.5413 379.904C76.5413 380.96 76.2545 381.674 75.8602 382.112C75.4772 382.537 74.8969 382.81 74.0693 382.81V384.81C75.3698 384.81 76.5255 384.362 77.3464 383.45C78.1562 382.551 78.5413 381.312 78.5413 379.904H76.5413ZM80.8853 385H79.8853V386H80.8853V385ZM80.8853 374.794V373.794H79.8853V374.794H80.8853ZM82.4113 383.684H81.4113V384.684H82.4113V383.684ZM82.4113 376.11V375.11H81.4113V376.11H82.4113ZM80.8853 386H85.0153V384H80.8853V386ZM85.0153 386C86.7294 386 88.1732 385.399 89.177 384.264C90.1665 383.145 90.6353 381.612 90.6353 379.904H88.6353C88.6353 381.262 88.264 382.277 87.6786 382.939C87.1073 383.586 86.2411 384 85.0153 384V386ZM90.6353 379.904C90.6353 378.196 90.1666 376.661 89.1782 375.538C88.1754 374.4 86.7316 373.794 85.0153 373.794V375.794C86.2389 375.794 87.1051 376.21 87.6773 376.86C88.2639 377.526 88.6353 378.546 88.6353 379.904H90.6353ZM85.0153 373.794H80.8853V375.794H85.0153V373.794ZM79.8853 374.794V385H81.8853V374.794H79.8853ZM83.4113 383.684V376.11H81.4113V383.684H83.4113ZM82.4113 377.11H84.7913V375.11H82.4113V377.11ZM84.7913 377.11C85.57 377.11 86.0934 377.338 86.4317 377.702C86.7794 378.077 87.0673 378.74 87.0673 379.876H89.0673C89.0673 378.422 88.6972 377.202 87.8968 376.341C87.0871 375.47 85.9726 375.11 84.7913 375.11V377.11ZM87.0673 379.876C87.0673 381.014 86.7814 381.692 86.4302 382.078C86.0909 382.45 85.5686 382.684 84.7913 382.684V384.684C85.9879 384.684 87.1036 384.309 87.9088 383.425C88.7021 382.554 89.0673 381.328 89.0673 379.876H87.0673ZM84.7913 382.684H82.4113V384.684H84.7913V382.684ZM89.8671 385L88.9248 384.665L88.4506 386H89.8671V385ZM91.4631 385V386H92.1707L92.4061 385.333L91.4631 385ZM92.3031 382.62V381.62H91.5956L91.3602 382.287L92.3031 382.62ZM96.8251 382.62L97.7681 382.287L97.5327 381.62H96.8251V382.62ZM97.6651 385L96.7222 385.333L96.9576 386H97.6651V385ZM99.2611 385V386H100.678L100.203 384.665L99.2611 385ZM95.6351 374.794L96.5774 374.459L96.3411 373.794H95.6351V374.794ZM93.4931 374.794V373.794H92.7872L92.5508 374.459L93.4931 374.794ZM92.6671 381.43L91.7276 381.088L91.2384 382.43H92.6671V381.43ZM93.8151 378.28L94.7547 378.622L94.7581 378.613L94.7613 378.604L93.8151 378.28ZM94.5291 376.194V375.194H93.8145L93.583 375.87L94.5291 376.194ZM94.6131 376.194L95.5593 375.87L95.3278 375.194H94.6131V376.194ZM95.3271 378.28L94.381 378.604L94.3849 378.615L95.3271 378.28ZM96.4471 381.43V382.43H97.864L97.3894 381.095L96.4471 381.43ZM89.8671 386H91.4631V384H89.8671V386ZM92.4061 385.333L93.2461 382.953L91.3602 382.287L90.5202 384.667L92.4061 385.333ZM92.3031 383.62H96.8251V381.62H92.3031V383.62ZM95.8822 382.953L96.7222 385.333L98.6081 384.667L97.7681 382.287L95.8822 382.953ZM97.6651 386H99.2611V384H97.6651V386ZM100.203 384.665L96.5774 374.459L94.6928 375.129L98.3188 385.335L100.203 384.665ZM95.6351 373.794H93.4931V375.794H95.6351V373.794ZM92.5508 374.459L88.9248 384.665L90.8094 385.335L94.4354 375.129L92.5508 374.459ZM93.6067 381.772L94.7547 378.622L92.8756 377.938L91.7276 381.088L93.6067 381.772ZM94.7613 378.604L95.4753 376.518L93.583 375.87L92.869 377.956L94.7613 378.604ZM94.5291 377.194H94.6131V375.194H94.5291V377.194ZM93.667 376.518L94.381 378.604L96.2733 377.956L95.5593 375.87L93.667 376.518ZM94.3849 378.615L95.5049 381.765L97.3894 381.095L96.2694 377.945L94.3849 378.615ZM96.4471 380.43H92.6671V382.43H96.4471V380.43ZM101.809 385H100.809V386H101.809V385ZM103.335 385V386H104.335V385H103.335ZM103.335 380.982L102.483 380.459L102.335 380.7V380.982H103.335ZM107.129 374.794L107.982 375.317L108.915 373.794H107.129V374.794ZM105.407 374.794V373.794H104.839L104.548 374.283L105.407 374.794ZM102.607 379.498V380.498H103.176L103.467 380.009L102.607 379.498ZM102.537 379.498L101.676 380.006L101.966 380.498H102.537V379.498ZM99.7653 374.794L100.627 374.286L100.337 373.794H99.7653V374.794ZM98.0293 374.794V373.794H96.2466L97.1759 375.315L98.0293 374.794ZM101.809 380.982H102.809V380.701L102.663 380.461L101.809 380.982ZM101.809 386H103.335V384H101.809V386ZM104.335 385V380.982H102.335V385H104.335ZM104.188 381.505L107.982 375.317L106.277 374.271L102.483 380.459L104.188 381.505ZM107.129 373.794H105.407V375.794H107.129V373.794ZM104.548 374.283L101.748 378.987L103.467 380.009L106.267 375.305L104.548 374.283ZM102.607 378.498H102.537V380.498H102.607V378.498ZM103.399 378.99L100.627 374.286L98.9037 375.302L101.676 380.006L103.399 378.99ZM99.7653 373.794H98.0293V375.794H99.7653V373.794ZM97.1759 375.315L100.956 381.503L102.663 380.461L98.8826 374.273L97.1759 375.315ZM100.809 380.982V385H102.809V380.982H100.809Z" fill="#E6E6E6"/>
<defs>
<filter id="filter0_b_417_1236" x="498" y="204" width="14" height="74" filterUnits="userSpaceOnUse" color-interpolation-filters="sRGB">
<feFlood flood-opacity="0" result="BackgroundImageFix"/>
<feGaussianBlur in="BackgroundImageFix" stdDeviation="2"/>
<feComposite in2="SourceAlpha" operator="in" result="effect1_backgroundBlur_417_1236"/>
<feBlend mode="normal" in="SourceGraphic" in2="effect1_backgroundBlur_417_1236" result="shape"/>
</filter>
<filter id="filter1_bd_417_1236" x="490" y="195" width="30" height="30" filterUnits="userSpaceOnUse" color-interpolation-filters="sRGB">
<feFlood flood-opacity="0" result="BackgroundImageFix"/>
<feGaussianBlur in="BackgroundImageFix" stdDeviation="4"/>
<feComposite in2="SourceAlpha" operator="in" result="effect1_backgroundBlur_417_1236"/>
<feColorMatrix in="SourceAlpha" type="matrix" values="0 0 0 0 0 0 0 0 0 0 0 0 0 0 0 0 0 0 127 0" result="hardAlpha"/>
<feOffset dy="4"/>
<feGaussianBlur stdDeviation="2"/>
<feComposite in2="hardAlpha" operator="out"/>
<feColorMatrix type="matrix" values="0 0 0 0 0 0 0 0 0 0 0 0 0 0 0 0 0 0 0.25 0"/>
<feBlend mode="normal" in2="effect1_backgroundBlur_417_1236" result="effect2_dropShadow_417_1236"/>
<feBlend mode="normal" in="SourceGraphic" in2="effect2_dropShadow_417_1236" result="shape"/>
</filter>
<linearGradient id="paint0_linear_417_1236" x1="329" y1="108.864" x2="329" y2="444" gradientUnits="userSpaceOnUse">
<stop stop-color="#AA5BFF" stop-opacity="0.3"/>
<stop offset="1" stop-color="#AA5BFF" stop-opacity="0"/>
</linearGradient>
<linearGradient id="paint1_linear_417_1236" x1="505" y1="208" x2="505" y2="274" gradientUnits="userSpaceOnUse">
<stop stop-color="#AA5BFF"/>
<stop offset="1" stop-color="#AA5BFF" stop-opacity="0"/>
</linearGradient>
<linearGradient id="paint2_linear_417_1236" x1="505" y1="203" x2="514" y2="233" gradientUnits="userSpaceOnUse">
<stop stop-color="#AA5BFF"/>
<stop offset="1" stop-color="#C58EFF" stop-opacity="0.671875"/>
</linearGradient>
<clipPath id="clip0_417_1236">
<rect x="1" y="1" width="656" height="400" rx="12" fill="white"/>
</clipPath>
</defs>
</svg>
