<svg width="201" height="218" viewBox="0 0 201 218" fill="none" xmlns="http://www.w3.org/2000/svg">
<g filter="url(#filter0_bd_1595_4638)">
<path d="M94.4816 31.4285C98.181 29.3053 102.729 29.3053 106.429 31.4285L161.507 63.041C165.234 65.1806 167.533 69.1505 167.533 73.4486V136.551C167.533 140.85 165.234 144.819 161.507 146.959L106.429 178.571C102.729 180.695 98.181 180.695 94.4816 178.571L39.4035 146.959C35.6758 144.819 33.377 140.85 33.377 136.551V73.4486C33.377 69.1505 35.6758 65.1806 39.4035 63.041L94.4816 31.4285Z" fill="url(#paint0_linear_1595_4638)" shape-rendering="crispEdges"/>
<path d="M106.678 30.9949C102.824 28.7832 98.0862 28.7832 94.2327 30.9949L39.1546 62.6074C35.2716 64.8361 32.877 68.9714 32.877 73.4486V136.551C32.877 141.029 35.2716 145.164 39.1546 147.393L94.2327 179.005C98.0862 181.217 102.824 181.217 106.678 179.005L161.756 147.393C165.639 145.164 168.033 141.029 168.033 136.551V73.4486C168.033 68.9714 165.639 64.8361 161.756 62.6074L106.678 30.9949Z" stroke="#E6E6E6" shape-rendering="crispEdges"/>
</g>
<defs>
<filter id="filter0_bd_1595_4638" x="-21.623" y="-25.1638" width="244.156" height="260.328" filterUnits="userSpaceOnUse" color-interpolation-filters="sRGB">
<feFlood flood-opacity="0" result="BackgroundImageFix"/>
<feGaussianBlur in="BackgroundImageFix" stdDeviation="27"/>
<feComposite in2="SourceAlpha" operator="in" result="effect1_backgroundBlur_1595_4638"/>
<feColorMatrix in="SourceAlpha" type="matrix" values="0 0 0 0 0 0 0 0 0 0 0 0 0 0 0 0 0 0 127 0" result="hardAlpha"/>
<feOffset dy="4"/>
<feGaussianBlur stdDeviation="16"/>
<feComposite in2="hardAlpha" operator="out"/>
<feColorMatrix type="matrix" values="0 0 0 0 0.0117647 0 0 0 0 0.0117647 0 0 0 0 0.0117647 0 0 0 0.05 0"/>
<feBlend mode="normal" in2="effect1_backgroundBlur_1595_4638" result="effect2_dropShadow_1595_4638"/>
<feBlend mode="normal" in="SourceGraphic" in2="effect2_dropShadow_1595_4638" result="shape"/>
</filter>
<linearGradient id="paint0_linear_1595_4638" x1="100.455" y1="28" x2="100.455" y2="182" gradientUnits="userSpaceOnUse">
<stop stop-color="white"/>
<stop offset="1" stop-color="white" stop-opacity="1"/>
</linearGradient>
</defs>
</svg>
