<svg width="182" height="200" viewBox="0 0 182 200" fill="none" xmlns="http://www.w3.org/2000/svg">
<g filter="url(#filter0_bd_1467_11432)">
<path d="M84.8652 31.6493C88.6459 29.4003 93.3541 29.4003 97.1348 31.6493L142.292 58.5111C145.929 60.6744 148.158 64.593 148.158 68.8244V123.176C148.158 127.407 145.929 131.326 142.292 133.489L97.1348 160.351C93.3541 162.6 88.6459 162.6 84.8652 160.351L39.7075 133.489C36.0709 131.326 33.8423 127.407 33.8423 123.176V68.8244C33.8423 64.593 36.0709 60.6744 39.7075 58.5111L84.8652 31.6493Z" fill="url(#paint0_linear_1467_11432)" shape-rendering="crispEdges"/>
<path d="M142.548 58.0814L97.3904 31.2195C93.4522 28.8769 88.5478 28.8769 84.6096 31.2196L39.4519 58.0814C35.6637 60.3348 33.3423 64.4167 33.3423 68.8244V123.176C33.3423 127.583 35.6637 131.665 39.4519 133.919L84.6096 160.78C88.5478 163.123 93.4522 163.123 97.3904 160.78L142.548 133.919C146.336 131.665 148.658 127.583 148.658 123.176V68.8244C148.658 64.4167 146.336 60.3348 142.548 58.0814Z" stroke="#1A1A1A" shape-rendering="crispEdges"/>
</g>
<defs>
<filter id="filter0_bd_1467_11432" x="-21.1572" y="-25.0375" width="224.314" height="242.075" filterUnits="userSpaceOnUse" color-interpolation-filters="sRGB">
<feFlood flood-opacity="0" result="BackgroundImageFix"/>
<feGaussianBlur in="BackgroundImageFix" stdDeviation="27"/>
<feComposite in2="SourceAlpha" operator="in" result="effect1_backgroundBlur_1467_11432"/>
<feColorMatrix in="SourceAlpha" type="matrix" values="0 0 0 0 0 0 0 0 0 0 0 0 0 0 0 0 0 0 127 0" result="hardAlpha"/>
<feOffset dy="4"/>
<feGaussianBlur stdDeviation="16"/>
<feComposite in2="hardAlpha" operator="out"/>
<feColorMatrix type="matrix" values="0 0 0 0 0.0117647 0 0 0 0 0.0117647 0 0 0 0 0.0117647 0 0 0 0.05 0"/>
<feBlend mode="normal" in2="effect1_backgroundBlur_1467_11432" result="effect2_dropShadow_1467_11432"/>
<feBlend mode="normal" in="SourceGraphic" in2="effect2_dropShadow_1467_11432" result="shape"/>
</filter>
<linearGradient id="paint0_linear_1467_11432" x1="91" y1="28" x2="91" y2="164" gradientUnits="userSpaceOnUse">
<stop stop-color="#161616"/>
<stop offset="1" stop-color="#161616" stop-opacity="0.4"/>
</linearGradient>
</defs>
</svg>
