<svg width="30" height="30" viewBox="0 0 30 30" fill="none" xmlns="http://www.w3.org/2000/svg">
<path d="M6.5625 3.75C5.02031 3.75 3.75 5.02031 3.75 6.5625V11.5625C3.75 13.1047 5.02031 14.375 6.5625 14.375H11.5625C13.1047 14.375 14.375 13.1047 14.375 11.5625V6.5625C14.375 5.02031 13.1047 3.75 11.5625 3.75H6.5625ZM18.4375 3.75C16.8953 3.75 15.625 5.02031 15.625 6.5625V11.5625C15.625 13.1047 16.8953 14.375 18.4375 14.375H23.4375C24.9797 14.375 26.25 13.1047 26.25 11.5625V6.5625C26.25 5.02031 24.9797 3.75 23.4375 3.75H18.4375ZM6.5625 5.625H11.5625C12.0916 5.625 12.5 6.03344 12.5 6.5625V11.5625C12.5 12.0916 12.0916 12.5 11.5625 12.5H6.5625C6.03344 12.5 5.625 12.0916 5.625 11.5625V6.5625C5.625 6.03344 6.03344 5.625 6.5625 5.625ZM18.4375 5.625H23.4375C23.9665 5.625 24.375 6.03344 24.375 6.5625V11.5625C24.375 12.0916 23.9665 12.5 23.4375 12.5H18.4375C17.9084 12.5 17.5 12.0916 17.5 11.5625V6.5625C17.5 6.03344 17.9084 5.625 18.4375 5.625ZM6.5625 15.625C5.02031 15.625 3.75 16.8953 3.75 18.4375V23.4375C3.75 24.9797 5.02031 26.25 6.5625 26.25H11.5625C13.1047 26.25 14.375 24.9797 14.375 23.4375V18.4375C14.375 16.8953 13.1047 15.625 11.5625 15.625H6.5625ZM18.4375 15.625C16.8953 15.625 15.625 16.8953 15.625 18.4375V23.4375C15.625 24.9797 16.8953 26.25 18.4375 26.25H23.4375C24.9797 26.25 26.25 24.9797 26.25 23.4375V18.4375C26.25 16.8953 24.9797 15.625 23.4375 15.625H18.4375ZM6.5625 17.5H11.5625C12.0916 17.5 12.5 17.9084 12.5 18.4375V23.4375C12.5 23.9665 12.0916 24.375 11.5625 24.375H6.5625C6.03344 24.375 5.625 23.9665 5.625 23.4375V18.4375C5.625 17.9084 6.03344 17.5 6.5625 17.5ZM18.4375 17.5H23.4375C23.9665 17.5 24.375 17.9084 24.375 18.4375V23.4375C24.375 23.9665 23.9665 24.375 23.4375 24.375H18.4375C17.9084 24.375 17.5 23.9665 17.5 23.4375V18.4375C17.5 17.9084 17.9084 17.5 18.4375 17.5Z" fill="#959595"/>
</svg>
