<svg width="30" height="30" viewBox="0 0 30 30" fill="none" xmlns="http://www.w3.org/2000/svg">
<path d="M7.1875 3.75C5.30014 3.75 3.75 5.30014 3.75 7.1875V22.8125C3.75 24.6998 5.30014 26.25 7.1875 26.25H22.8125C24.6998 26.25 26.25 24.6998 26.25 22.8125V7.1875C26.25 5.30014 24.6998 3.75 22.8125 3.75H7.1875ZM7.1875 5.625H22.8125C23.6864 5.625 24.375 6.3136 24.375 7.1875V10.625H5.625V7.1875C5.625 6.3136 6.3136 5.625 7.1875 5.625ZM5.625 12.5H24.375V17.5H5.625V12.5ZM5.625 19.375H24.375V22.8125C24.375 23.6864 23.6864 24.375 22.8125 24.375H7.1875C6.3136 24.375 5.625 23.6864 5.625 22.8125V19.375Z" fill="#959595"/>
</svg>
