<svg xmlns="http://www.w3.org/2000/svg" xmlns:xlink="http://www.w3.org/1999/xlink" viewBox="0,0,256,256" width="30px" height="30px"><g fill="#959595" fill-rule="nonzero" stroke="none" stroke-width="1" stroke-linecap="butt" stroke-linejoin="miter" stroke-miterlimit="10" stroke-dasharray="" stroke-dashoffset="0" font-family="none" font-weight="none" font-size="none" text-anchor="none" style="mix-blend-mode: normal"><g transform="scale(8.53333,8.53333)"><path d="M20,4c-1.29316,0 -2.39514,0.84267 -2.8125,2h-13.1875c-0.36064,-0.0051 -0.69608,0.18438 -0.87789,0.49587c-0.18181,0.3115 -0.18181,0.69676 0,1.00825c0.18181,0.3115 0.51725,0.50097 0.87789,0.49587h13.1875c0.41736,1.15733 1.51934,2 2.8125,2c1.29316,0 2.39514,-0.84267 2.8125,-2h3.1875c0.36064,0.0051 0.69608,-0.18438 0.87789,-0.49587c0.18181,-0.3115 0.18181,-0.69676 0,-1.00825c-0.18181,-0.3115 -0.51725,-0.50097 -0.87789,-0.49587h-3.1875c-0.41736,-1.15733 -1.51934,-2 -2.8125,-2zM20,6c0.54383,0 0.95843,0.40881 0.98828,0.94336c-0.00221,0.03838 -0.00221,0.07685 0,0.11523c-0.03079,0.53357 -0.44512,0.94141 -0.98828,0.94141c-0.54383,0 -0.95843,-0.40881 -0.98828,-0.94336c0.00221,-0.03838 0.00221,-0.07685 0,-0.11523c0.03079,-0.53357 0.44512,-0.94141 0.98828,-0.94141zM12,12c-1.29316,0 -2.39514,0.84267 -2.8125,2h-5.1875c-0.36064,-0.0051 -0.69608,0.18438 -0.87789,0.49587c-0.18181,0.3115 -0.18181,0.69676 0,1.00825c0.18181,0.3115 0.51725,0.50097 0.87789,0.49587h5.1875c0.41736,1.15733 1.51934,2 2.8125,2c1.29316,0 2.39514,-0.84267 2.8125,-2h11.1875c0.36064,0.0051 0.69608,-0.18438 0.87789,-0.49587c0.18181,-0.3115 0.18181,-0.69676 0,-1.00825c-0.18181,-0.3115 -0.51725,-0.50097 -0.87789,-0.49587h-11.1875c-0.41736,-1.15733 -1.51934,-2 -2.8125,-2zM12,14c0.54383,0 0.95843,0.40881 0.98828,0.94336c-0.00221,0.03838 -0.00221,0.07686 0,0.11524c-0.03079,0.53357 -0.44512,0.94141 -0.98828,0.94141c-0.54383,0 -0.95843,-0.40881 -0.98828,-0.94336c0.00221,-0.03838 0.00221,-0.07686 0,-0.11524c0.03079,-0.53357 0.44512,-0.94141 0.98828,-0.94141zM16,20c-1.29316,0 -2.39514,0.84267 -2.8125,2h-9.1875c-0.36064,-0.0051 -0.69608,0.18438 -0.87789,0.49587c-0.18181,0.3115 -0.18181,0.69676 0,1.00825c0.18181,0.3115 0.51725,0.50097 0.87789,0.49587h9.1875c0.41736,1.15733 1.51934,2 2.8125,2c1.29316,0 2.39514,-0.84267 2.8125,-2h7.1875c0.36064,0.0051 0.69608,-0.18438 0.87789,-0.49587c0.18181,-0.3115 0.18181,-0.69676 0,-1.00825c-0.18181,-0.3115 -0.51725,-0.50097 -0.87789,-0.49587h-7.1875c-0.41736,-1.15733 -1.51934,-2 -2.8125,-2zM16,22c0.54383,0 0.95843,0.40881 0.98828,0.94336c-0.00221,0.03838 -0.00221,0.07686 0,0.11523c-0.03079,0.53356 -0.44512,0.94141 -0.98828,0.94141c-0.54383,0 -0.95843,-0.40881 -0.98828,-0.94336c0.00221,-0.03838 0.00221,-0.07686 0,-0.11523c0.03079,-0.53356 0.44512,-0.94141 0.98828,-0.94141z"></path></g></g></svg>