<svg xmlns="http://www.w3.org/2000/svg" xmlns:xlink="http://www.w3.org/1999/xlink" viewBox="0,0,256,256" width="32px" height="32px"><g fill="#959595" fill-rule="nonzero" stroke="none" stroke-width="1" stroke-linecap="butt" stroke-linejoin="miter" stroke-miterlimit="10" stroke-dasharray="" stroke-dashoffset="0" font-family="none" font-weight="none" font-size="none" text-anchor="none" style="mix-blend-mode: normal"><g transform="scale(8,8)"><path d="M6,4.58594l-5.70703,5.70703l1.41406,1.41406l3.29297,-3.29297v11.58594c0,3.30163 2.69837,6 6,6c3.30162,0 6,-2.69837 6,-6v-8c0,-2.22037 1.77962,-4 4,-4c2.22038,0 4,1.77963 4,4v11.58594l-3.29297,-3.29297l-1.41406,1.41406l5.70703,5.70703l5.70703,-5.70703l-1.41406,-1.41406l-3.29297,3.29297v-11.58594c0,-3.30163 -2.69837,-6 -6,-6c-3.30163,0 -6,2.69837 -6,6v8c0,2.22038 -1.77962,4 -4,4c-2.22037,0 -4,-1.77962 -4,-4v-11.58594l3.29297,3.29297l1.41406,-1.41406z"></path></g></g></svg>