<svg xmlns="http://www.w3.org/2000/svg" xmlns:xlink="http://www.w3.org/1999/xlink" viewBox="0,0,256,256" width="24px" height="24px"><g fill="#959595" fill-rule="nonzero" stroke="none" stroke-width="1" stroke-linecap="butt" stroke-linejoin="miter" stroke-miterlimit="10" stroke-dasharray="" stroke-dashoffset="0" font-family="none" font-weight="none" font-size="none" text-anchor="none" style="mix-blend-mode: normal"><g transform="scale(10.66667,10.66667)"><path d="M21.73828,6h-17.47656c-1.35547,0 -1.91406,-0.63281 -2.13281,-1.01172l18.87109,-1.98828v-0.73828c0,-1.25 -1.01172,-2.26172 -2.26172,-2.26172l-16.47656,3.0625c-1.37109,0.25 -2.26172,1.01563 -2.26172,2.26172v16.41406c0,1.25 1.01172,2.26172 2.26172,2.26172h19.47656c1.25,0 2.26172,-1.01172 2.26172,-2.26172v-13.47656c0,-1.25 -1.01172,-2.26172 -2.26172,-2.26172zM20,17c-1.10547,0 -2,-0.89453 -2,-2c0,-1.10547 0.89453,-2 2,-2c1.10547,0 2,0.89453 2,2c0,1.10547 -0.89453,2 -2,2z"></path></g></g></svg>