<svg width="15" height="14" viewBox="0 0 15 14" fill="none" xmlns="http://www.w3.org/2000/svg">
<g id="icons8-right-arrow 1">
<path id="Vector" d="M4.65444 1.39261C4.45134 1.38586 4.2515 1.44449 4.08479 1.55972C3.91807 1.67495 3.79344 1.8406 3.72952 2.03191C3.6656 2.22322 3.66583 2.4299 3.73017 2.62107C3.79451 2.81224 3.91951 2.97761 4.08648 3.09248L9.60247 6.99991L4.08648 10.9073C3.98198 10.9769 3.89262 11.0666 3.82369 11.1711C3.75476 11.2755 3.70766 11.3927 3.68518 11.5155C3.66269 11.6383 3.66529 11.7644 3.6928 11.8862C3.72031 12.0081 3.77219 12.1232 3.84535 12.2248C3.91852 12.3263 4.01149 12.4123 4.11877 12.4777C4.22604 12.543 4.34544 12.5863 4.46989 12.6051C4.59435 12.6238 4.72133 12.6176 4.84332 12.5868C4.96531 12.556 5.07984 12.5013 5.18012 12.4258L11.7677 7.75915C11.8895 7.67277 11.9887 7.55883 12.0572 7.42678C12.1257 7.29473 12.1614 7.14839 12.1614 6.99991C12.1614 6.85142 12.1257 6.70508 12.0572 6.57303C11.9887 6.44098 11.8895 6.32704 11.7677 6.24066L5.18012 1.57399C5.02734 1.46236 4.8441 1.39913 4.65444 1.39261Z" fill="#AA5BFF"/>
</g>
</svg>
