<svg width="633" height="216" viewBox="0 0 633 216" fill="none" xmlns="http://www.w3.org/2000/svg">
<path d="M633 217H634V216V28.7473V28.0121L633.298 27.7928L575.885 9.84773L575.603 9.75973L575.319 9.83863L510.858 27.731L448.815 20.3422L448.67 20.3249L448.526 20.3498L340.62 39.0462L272.356 27.7739L219.361 9.85489L219.206 9.8022H219.041H163.075H162.951L162.831 9.83236L91.9964 27.6339L68.2755 2.31628L67.9312 1.94883L67.431 2.00661L-0.114747 9.8088L-1 9.91106V10.8022V216V217H0H633Z" fill="url(#paint0_linear_0_1)" stroke="#AA5BFF" stroke-width="2" stroke-linecap="round"/>
<line x1="-0.000366211" y1="174.994" x2="656" y2="174.994" stroke="#1D1D1D"/>
<g filter="url(#filter0_b_0_1)">
<rect x="446" y="19" width="6" height="66" fill="url(#paint1_linear_0_1)"/>
</g>
<g filter="url(#filter1_bd_0_1)">
<rect x="442" y="14" width="14" height="14" rx="7" fill="url(#paint2_linear_0_1)" shape-rendering="crispEdges"/>
<rect x="443" y="15" width="12" height="12" rx="6" stroke="#AA5BFF" stroke-opacity="0.2" stroke-width="2" shape-rendering="crispEdges"/>
</g>
<defs>
<filter id="filter0_b_0_1" x="442" y="15" width="14" height="74" filterUnits="userSpaceOnUse" color-interpolation-filters="sRGB">
<feFlood flood-opacity="0" result="BackgroundImageFix"/>
<feGaussianBlur in="BackgroundImageFix" stdDeviation="2"/>
<feComposite in2="SourceAlpha" operator="in" result="effect1_backgroundBlur_0_1"/>
<feBlend mode="normal" in="SourceGraphic" in2="effect1_backgroundBlur_0_1" result="shape"/>
</filter>
<filter id="filter1_bd_0_1" x="434" y="6" width="30" height="30" filterUnits="userSpaceOnUse" color-interpolation-filters="sRGB">
<feFlood flood-opacity="0" result="BackgroundImageFix"/>
<feGaussianBlur in="BackgroundImageFix" stdDeviation="4"/>
<feComposite in2="SourceAlpha" operator="in" result="effect1_backgroundBlur_0_1"/>
<feColorMatrix in="SourceAlpha" type="matrix" values="0 0 0 0 0 0 0 0 0 0 0 0 0 0 0 0 0 0 127 0" result="hardAlpha"/>
<feOffset dy="4"/>
<feGaussianBlur stdDeviation="2"/>
<feComposite in2="hardAlpha" operator="out"/>
<feColorMatrix type="matrix" values="0 0 0 0 0 0 0 0 0 0 0 0 0 0 0 0 0 0 0.25 0"/>
<feBlend mode="normal" in2="effect1_backgroundBlur_0_1" result="effect2_dropShadow_0_1"/>
<feBlend mode="normal" in="SourceGraphic" in2="effect2_dropShadow_0_1" result="shape"/>
</filter>
<linearGradient id="paint0_linear_0_1" x1="316.5" y1="-45.4796" x2="316.5" y2="216" gradientUnits="userSpaceOnUse">
<stop stop-color="#AA5BFF" stop-opacity="0.3"/>
<stop offset="1" stop-color="#AA5BFF" stop-opacity="0"/>
</linearGradient>
<linearGradient id="paint1_linear_0_1" x1="449" y1="19" x2="449" y2="85" gradientUnits="userSpaceOnUse">
<stop stop-color="#AA5BFF"/>
<stop offset="1" stop-color="#AA5BFF" stop-opacity="0"/>
</linearGradient>
<linearGradient id="paint2_linear_0_1" x1="449" y1="14" x2="458" y2="44" gradientUnits="userSpaceOnUse">
<stop stop-color="#AA5BFF"/>
<stop offset="1" stop-color="#C58EFF" stop-opacity="0.671875"/>
</linearGradient>
</defs>
</svg>
